  0
SECTION
  2
HEADER
  9
$ANGBASE
  50
0.0
  9
$ANGDIR
  70
1
  9
$MEASUREMENT
  70
0
  0
ENDSEC
  0
SECTION
  2
TABLES
  0
TABLE
  2
LTYPE
  70
4
  0
LTYPE
  5
40F
  2
CONTINUOUS
  70
0
  3
Solid line
  72
65
  73
0
  40
0.0
  0
LTYPE
  5
410
  2
DASHDOT
 70
0
  3
Dash Dot ____ _ ____ _
 72
65
 73
4
 40
2.0
 49
1.25
 49
-0.25
 49
0.25
 49
-0.25
  0
LTYPE
  5
411
  2
DASHED
 70
0
  3
Dashed __ __ __ __ __
 72
65
 73
2
 40
0.75
 49
0.5
 49
-0.25
  0
LTYPE
  5
43B
  2
DOTTED
 70
0
  3
Dotted .  .  .  .
 72
65
 73
2
 40
0.2
 49
0.0
 49
-0.2
  0
ENDTAB
  0
TABLE
  2
STYLE
  70
4
  0
STYLE
  2
KICAD
  70
0
  40
0
  41
1
  42
1
  50
0
  71
0
  3
isocp.shx
  0
STYLE
  2
KICADB
  70
0
  40
0
  41
1
  42
1
  50
0
  71
0
  3
isocp.shx
  0
STYLE
  2
KICADI
  70
0
  40
0
  41
1
  42
1
  50
15
  71
0
  3
isocp.shx
  0
STYLE
  2
KICADBI
  70
0
  40
0
  41
1
  42
1
  50
15
  71
0
  3
isocp.shx
  0
ENDTAB
  0
TABLE
  2
LAYER
  70
1
  0
LAYER
  2
BLACK
  70
0
  62
7
  6
CONTINUOUS
  0
ENDTAB
  0
ENDSEC
  0
SECTION
  2
ENTITIES
0
LINE
8
BLACK
6
CONTINUOUS
10
5.35
20
-3
11
6.64791
21
-3
0
LINE
8
BLACK
6
CONTINUOUS
10
6.64791
20
-3
11
6.64791
21
-4.15
0
LINE
8
BLACK
6
CONTINUOUS
10
6.64791
20
-4.15
11
5.35
21
-4.15
0
LINE
8
BLACK
6
CONTINUOUS
10
5.35
20
-4.15
11
5.35
21
-3
0
LINE
8
BLACK
6
CONTINUOUS
10
5.3622
20
-4.03543
11
5.37402
21
-4.04724
0
LINE
8
BLACK
6
CONTINUOUS
10
5.37402
20
-4.03543
11
5.3622
21
-4.04724
0
LINE
8
BLACK
6
CONTINUOUS
10
5.38976
20
-3.35433
11
5.40157
21
-3.36614
0
LINE
8
BLACK
6
CONTINUOUS
10
5.40157
20
-3.35433
11
5.38976
21
-3.36614
0
LINE
8
BLACK
6
CONTINUOUS
10
5.41909
20
-3.62409
11
5.43091
21
-3.63591
0
LINE
8
BLACK
6
CONTINUOUS
10
5.43091
20
-3.62409
11
5.41909
21
-3.63591
0
LINE
8
BLACK
6
CONTINUOUS
10
5.44909
20
-3.54409
11
5.46091
21
-3.55591
0
LINE
8
BLACK
6
CONTINUOUS
10
5.46091
20
-3.54409
11
5.44909
21
-3.55591
0
LINE
8
BLACK
6
CONTINUOUS
10
5.46909
20
-4.01909
11
5.48091
21
-4.03091
0
LINE
8
BLACK
6
CONTINUOUS
10
5.48091
20
-4.01909
11
5.46909
21
-4.03091
0
LINE
8
BLACK
6
CONTINUOUS
10
5.47409
20
-3.88409
11
5.48591
21
-3.89591
0
LINE
8
BLACK
6
CONTINUOUS
10
5.48591
20
-3.88409
11
5.47409
21
-3.89591
0
LINE
8
BLACK
6
CONTINUOUS
10
5.48909
20
-4.12409
11
5.50091
21
-4.13591
0
LINE
8
BLACK
6
CONTINUOUS
10
5.50091
20
-4.12409
11
5.48909
21
-4.13591
0
LINE
8
BLACK
6
CONTINUOUS
10
5.50409
20
-3.65409
11
5.51591
21
-3.66591
0
LINE
8
BLACK
6
CONTINUOUS
10
5.51591
20
-3.65409
11
5.50409
21
-3.66591
0
LINE
8
BLACK
6
CONTINUOUS
10
5.52909
20
-3.75409
11
5.54091
21
-3.76591
0
LINE
8
BLACK
6
CONTINUOUS
10
5.54091
20
-3.75409
11
5.52909
21
-3.76591
0
LINE
8
BLACK
6
CONTINUOUS
10
5.53409
20
-3.80909
11
5.54591
21
-3.82091
0
LINE
8
BLACK
6
CONTINUOUS
10
5.54591
20
-3.80909
11
5.53409
21
-3.82091
0
LINE
8
BLACK
6
CONTINUOUS
10
5.54869
20
-3.36811
11
5.5605
21
-3.37992
0
LINE
8
BLACK
6
CONTINUOUS
10
5.5605
20
-3.36811
11
5.54869
21
-3.37992
0
LINE
8
BLACK
6
CONTINUOUS
10
5.72151
20
-4.06651
11
5.73332
21
-4.07832
0
LINE
8
BLACK
6
CONTINUOUS
10
5.73332
20
-4.06651
11
5.72151
21
-4.07832
0
LINE
8
BLACK
6
CONTINUOUS
10
5.72638
20
-3.85236
11
5.73819
21
-3.86417
0
LINE
8
BLACK
6
CONTINUOUS
10
5.73819
20
-3.85236
11
5.72638
21
-3.86417
0
LINE
8
BLACK
6
CONTINUOUS
10
5.75909
20
-3.87909
11
5.77091
21
-3.89091
0
LINE
8
BLACK
6
CONTINUOUS
10
5.77091
20
-3.87909
11
5.75909
21
-3.89091
0
LINE
8
BLACK
6
CONTINUOUS
10
5.83909
20
-3.80909
11
5.85091
21
-3.82091
0
LINE
8
BLACK
6
CONTINUOUS
10
5.85091
20
-3.80909
11
5.83909
21
-3.82091
0
LINE
8
BLACK
6
CONTINUOUS
10
5.87315
20
-3.98504
11
5.88496
21
-3.99685
0
LINE
8
BLACK
6
CONTINUOUS
10
5.88496
20
-3.98504
11
5.87315
21
-3.99685
0
LINE
8
BLACK
6
CONTINUOUS
10
5.94909
20
-3.92409
11
5.96091
21
-3.93591
0
LINE
8
BLACK
6
CONTINUOUS
10
5.96091
20
-3.92409
11
5.94909
21
-3.93591
0
LINE
8
BLACK
6
CONTINUOUS
10
6.23622
20
-3.88386
11
6.24803
21
-3.89567
0
LINE
8
BLACK
6
CONTINUOUS
10
6.24803
20
-3.88386
11
6.23622
21
-3.89567
0
LINE
8
BLACK
6
CONTINUOUS
10
6.29909
20
-4.06909
11
6.31091
21
-4.08091
0
LINE
8
BLACK
6
CONTINUOUS
10
6.31091
20
-4.06909
11
6.29909
21
-4.08091
0
LINE
8
BLACK
6
CONTINUOUS
10
6.42409
20
-4.09909
11
6.43591
21
-4.11091
0
LINE
8
BLACK
6
CONTINUOUS
10
6.43591
20
-4.09909
11
6.42409
21
-4.11091
0
LINE
8
BLACK
6
CONTINUOUS
10
6.46654
20
-3.86417
11
6.47835
21
-3.87598
0
LINE
8
BLACK
6
CONTINUOUS
10
6.47835
20
-3.86417
11
6.46654
21
-3.87598
0
LINE
8
BLACK
6
CONTINUOUS
10
6.51409
20
-3.84409
11
6.52591
21
-3.85591
0
LINE
8
BLACK
6
CONTINUOUS
10
6.52591
20
-3.84409
11
6.51409
21
-3.85591
0
LINE
8
BLACK
6
CONTINUOUS
10
6.51969
20
-3.60433
11
6.5315
21
-3.61614
0
LINE
8
BLACK
6
CONTINUOUS
10
6.5315
20
-3.60433
11
6.51969
21
-3.61614
0
LINE
8
BLACK
6
CONTINUOUS
10
6.55118
20
-3.94094
11
6.56299
21
-3.95276
0
LINE
8
BLACK
6
CONTINUOUS
10
6.56299
20
-3.94094
11
6.55118
21
-3.95276
0
LINE
8
BLACK
6
CONTINUOUS
10
6.57677
20
-3.56693
11
6.58858
21
-3.57874
0
LINE
8
BLACK
6
CONTINUOUS
10
6.58858
20
-3.56693
11
6.57677
21
-3.57874
0
LINE
8
BLACK
6
CONTINUOUS
10
6.58661
20
-3.60433
11
6.59843
21
-3.61614
0
LINE
8
BLACK
6
CONTINUOUS
10
6.59843
20
-3.60433
11
6.58661
21
-3.61614
0
LINE
8
BLACK
6
CONTINUOUS
10
6.60409
20
-3.98409
11
6.61591
21
-3.99591
0
LINE
8
BLACK
6
CONTINUOUS
10
6.61591
20
-3.98409
11
6.60409
21
-3.99591
0
CIRCLE
8
BLACK
10
5.485
20
-3.505
40
0.0065
0
CIRCLE
8
BLACK
10
5.51181
20
-3.57874
40
0.0065
0
CIRCLE
8
BLACK
10
5.59843
20
-3.45669
40
0.0065
0
LINE
8
BLACK
6
CONTINUOUS
10
5.44946
20
-4.2742
11
5.44946
21
-4.19546
0
LINE
8
BLACK
6
CONTINUOUS
10
5.44946
20
-4.19546
11
5.4682
21
-4.19546
0
LINE
8
BLACK
6
CONTINUOUS
10
5.4682
20
-4.19546
11
5.47945
21
-4.19921
0
LINE
8
BLACK
6
CONTINUOUS
10
5.47945
20
-4.19921
11
5.48695
21
-4.20671
0
LINE
8
BLACK
6
CONTINUOUS
10
5.48695
20
-4.20671
11
5.4907
21
-4.21421
0
LINE
8
BLACK
6
CONTINUOUS
10
5.4907
20
-4.21421
11
5.49445
21
-4.22921
0
LINE
8
BLACK
6
CONTINUOUS
10
5.49445
20
-4.22921
11
5.49445
21
-4.24046
0
LINE
8
BLACK
6
CONTINUOUS
10
5.49445
20
-4.24046
11
5.4907
21
-4.25546
0
LINE
8
BLACK
6
CONTINUOUS
10
5.4907
20
-4.25546
11
5.48695
21
-4.26295
0
LINE
8
BLACK
6
CONTINUOUS
10
5.48695
20
-4.26295
11
5.47945
21
-4.27045
0
LINE
8
BLACK
6
CONTINUOUS
10
5.47945
20
-4.27045
11
5.4682
21
-4.2742
0
LINE
8
BLACK
6
CONTINUOUS
10
5.4682
20
-4.2742
11
5.44946
21
-4.2742
0
LINE
8
BLACK
6
CONTINUOUS
10
5.5282
20
-4.2742
11
5.5282
21
-4.22171
0
LINE
8
BLACK
6
CONTINUOUS
10
5.5282
20
-4.23671
11
5.53195
21
-4.22921
0
LINE
8
BLACK
6
CONTINUOUS
10
5.53195
20
-4.22921
11
5.5357
21
-4.22546
0
LINE
8
BLACK
6
CONTINUOUS
10
5.5357
20
-4.22546
11
5.54319
21
-4.22171
0
LINE
8
BLACK
6
CONTINUOUS
10
5.54319
20
-4.22171
11
5.55069
21
-4.22171
0
LINE
8
BLACK
6
CONTINUOUS
10
5.57694
20
-4.2742
11
5.57694
21
-4.22171
0
LINE
8
BLACK
6
CONTINUOUS
10
5.57694
20
-4.19546
11
5.57319
21
-4.19921
0
LINE
8
BLACK
6
CONTINUOUS
10
5.57319
20
-4.19921
11
5.57694
21
-4.20296
0
LINE
8
BLACK
6
CONTINUOUS
10
5.57694
20
-4.20296
11
5.58069
21
-4.19921
0
LINE
8
BLACK
6
CONTINUOUS
10
5.58069
20
-4.19921
11
5.57694
21
-4.19546
0
LINE
8
BLACK
6
CONTINUOUS
10
5.57694
20
-4.19546
11
5.57694
21
-4.20296
0
LINE
8
BLACK
6
CONTINUOUS
10
5.62568
20
-4.2742
11
5.61819
21
-4.27045
0
LINE
8
BLACK
6
CONTINUOUS
10
5.61819
20
-4.27045
11
5.61444
21
-4.26295
0
LINE
8
BLACK
6
CONTINUOUS
10
5.61444
20
-4.26295
11
5.61444
21
-4.19546
0
LINE
8
BLACK
6
CONTINUOUS
10
5.66693
20
-4.2742
11
5.65943
21
-4.27045
0
LINE
8
BLACK
6
CONTINUOUS
10
5.65943
20
-4.27045
11
5.65568
21
-4.26295
0
LINE
8
BLACK
6
CONTINUOUS
10
5.65568
20
-4.26295
11
5.65568
21
-4.19546
0
LINE
8
BLACK
6
CONTINUOUS
10
5.75692
20
-4.2742
11
5.75692
21
-4.19546
0
LINE
8
BLACK
6
CONTINUOUS
10
5.75692
20
-4.19546
11
5.78316
21
-4.25171
0
LINE
8
BLACK
6
CONTINUOUS
10
5.78316
20
-4.25171
11
5.80941
21
-4.19546
0
LINE
8
BLACK
6
CONTINUOUS
10
5.80941
20
-4.19546
11
5.80941
21
-4.2742
0
LINE
8
BLACK
6
CONTINUOUS
10
5.88065
20
-4.2742
11
5.88065
21
-4.23296
0
LINE
8
BLACK
6
CONTINUOUS
10
5.88065
20
-4.23296
11
5.8769
21
-4.22546
0
LINE
8
BLACK
6
CONTINUOUS
10
5.8769
20
-4.22546
11
5.8694
21
-4.22171
0
LINE
8
BLACK
6
CONTINUOUS
10
5.8694
20
-4.22171
11
5.85441
21
-4.22171
0
LINE
8
BLACK
6
CONTINUOUS
10
5.85441
20
-4.22171
11
5.84691
21
-4.22546
0
LINE
8
BLACK
6
CONTINUOUS
10
5.88065
20
-4.27045
11
5.87315
21
-4.2742
0
LINE
8
BLACK
6
CONTINUOUS
10
5.87315
20
-4.2742
11
5.85441
21
-4.2742
0
LINE
8
BLACK
6
CONTINUOUS
10
5.85441
20
-4.2742
11
5.84691
21
-4.27045
0
LINE
8
BLACK
6
CONTINUOUS
10
5.84691
20
-4.27045
11
5.84316
21
-4.26295
0
LINE
8
BLACK
6
CONTINUOUS
10
5.84316
20
-4.26295
11
5.84316
21
-4.25546
0
LINE
8
BLACK
6
CONTINUOUS
10
5.84316
20
-4.25546
11
5.84691
21
-4.24796
0
LINE
8
BLACK
6
CONTINUOUS
10
5.84691
20
-4.24796
11
5.85441
21
-4.24421
0
LINE
8
BLACK
6
CONTINUOUS
10
5.85441
20
-4.24421
11
5.87315
21
-4.24421
0
LINE
8
BLACK
6
CONTINUOUS
10
5.87315
20
-4.24421
11
5.88065
21
-4.24046
0
LINE
8
BLACK
6
CONTINUOUS
10
5.91815
20
-4.22171
11
5.91815
21
-4.30045
0
LINE
8
BLACK
6
CONTINUOUS
10
5.91815
20
-4.22546
11
5.92565
21
-4.22171
0
LINE
8
BLACK
6
CONTINUOUS
10
5.92565
20
-4.22171
11
5.94064
21
-4.22171
0
LINE
8
BLACK
6
CONTINUOUS
10
5.94064
20
-4.22171
11
5.94814
21
-4.22546
0
LINE
8
BLACK
6
CONTINUOUS
10
5.94814
20
-4.22546
11
5.95189
21
-4.22921
0
LINE
8
BLACK
6
CONTINUOUS
10
5.95189
20
-4.22921
11
5.95564
21
-4.23671
0
LINE
8
BLACK
6
CONTINUOUS
10
5.95564
20
-4.23671
11
5.95564
21
-4.25921
0
LINE
8
BLACK
6
CONTINUOUS
10
5.95564
20
-4.25921
11
5.95189
21
-4.2667
0
LINE
8
BLACK
6
CONTINUOUS
10
5.95189
20
-4.2667
11
5.94814
21
-4.27045
0
LINE
8
BLACK
6
CONTINUOUS
10
5.94814
20
-4.27045
11
5.94064
21
-4.2742
0
LINE
8
BLACK
6
CONTINUOUS
10
5.94064
20
-4.2742
11
5.92565
21
-4.2742
0
LINE
8
BLACK
6
CONTINUOUS
10
5.92565
20
-4.2742
11
5.91815
21
-4.27045
0
LINE
8
BLACK
6
CONTINUOUS
10
5.98939
20
-4.2667
11
5.99314
21
-4.27045
0
LINE
8
BLACK
6
CONTINUOUS
10
5.99314
20
-4.27045
11
5.98939
21
-4.2742
0
LINE
8
BLACK
6
CONTINUOUS
10
5.98939
20
-4.2742
11
5.98564
21
-4.27045
0
LINE
8
BLACK
6
CONTINUOUS
10
5.98564
20
-4.27045
11
5.98939
21
-4.2667
0
LINE
8
BLACK
6
CONTINUOUS
10
5.98939
20
-4.2667
11
5.98939
21
-4.2742
0
LINE
8
BLACK
6
CONTINUOUS
10
5.98939
20
-4.22546
11
5.99314
21
-4.22921
0
LINE
8
BLACK
6
CONTINUOUS
10
5.99314
20
-4.22921
11
5.98939
21
-4.23296
0
LINE
8
BLACK
6
CONTINUOUS
10
5.98939
20
-4.23296
11
5.98564
21
-4.22921
0
LINE
8
BLACK
6
CONTINUOUS
10
5.98564
20
-4.22921
11
5.98939
21
-4.22546
0
LINE
8
BLACK
6
CONTINUOUS
10
5.98939
20
-4.22546
11
5.98939
21
-4.23296
0
LINE
8
BLACK
6
CONTINUOUS
10
5.33622
20
-4.39803
11
5.34803
21
-4.40984
0
LINE
8
BLACK
6
CONTINUOUS
10
5.34803
20
-4.39803
11
5.33622
21
-4.40984
0
LINE
8
BLACK
6
CONTINUOUS
10
5.46445
20
-4.36082
11
5.47195
21
-4.36082
0
LINE
8
BLACK
6
CONTINUOUS
10
5.47195
20
-4.36082
11
5.47945
21
-4.36457
0
LINE
8
BLACK
6
CONTINUOUS
10
5.47945
20
-4.36457
11
5.4832
21
-4.36832
0
LINE
8
BLACK
6
CONTINUOUS
10
5.4832
20
-4.36832
11
5.48695
21
-4.37582
0
LINE
8
BLACK
6
CONTINUOUS
10
5.48695
20
-4.37582
11
5.4907
21
-4.39081
0
LINE
8
BLACK
6
CONTINUOUS
10
5.4907
20
-4.39081
11
5.4907
21
-4.40956
0
LINE
8
BLACK
6
CONTINUOUS
10
5.4907
20
-4.40956
11
5.48695
21
-4.42456
0
LINE
8
BLACK
6
CONTINUOUS
10
5.48695
20
-4.42456
11
5.4832
21
-4.43206
0
LINE
8
BLACK
6
CONTINUOUS
10
5.4832
20
-4.43206
11
5.47945
21
-4.43581
0
LINE
8
BLACK
6
CONTINUOUS
10
5.47945
20
-4.43581
11
5.47195
21
-4.43956
0
LINE
8
BLACK
6
CONTINUOUS
10
5.47195
20
-4.43956
11
5.46445
21
-4.43956
0
LINE
8
BLACK
6
CONTINUOUS
10
5.46445
20
-4.43956
11
5.45696
21
-4.43581
0
LINE
8
BLACK
6
CONTINUOUS
10
5.45696
20
-4.43581
11
5.45321
21
-4.43206
0
LINE
8
BLACK
6
CONTINUOUS
10
5.45321
20
-4.43206
11
5.44946
21
-4.42456
0
LINE
8
BLACK
6
CONTINUOUS
10
5.44946
20
-4.42456
11
5.44571
21
-4.40956
0
LINE
8
BLACK
6
CONTINUOUS
10
5.44571
20
-4.40956
11
5.44571
21
-4.39081
0
LINE
8
BLACK
6
CONTINUOUS
10
5.44571
20
-4.39081
11
5.44946
21
-4.37582
0
LINE
8
BLACK
6
CONTINUOUS
10
5.44946
20
-4.37582
11
5.45321
21
-4.36832
0
LINE
8
BLACK
6
CONTINUOUS
10
5.45321
20
-4.36832
11
5.45696
21
-4.36457
0
LINE
8
BLACK
6
CONTINUOUS
10
5.45696
20
-4.36457
11
5.46445
21
-4.36082
0
LINE
8
BLACK
6
CONTINUOUS
10
5.52445
20
-4.43206
11
5.5282
21
-4.43581
0
LINE
8
BLACK
6
CONTINUOUS
10
5.5282
20
-4.43581
11
5.52445
21
-4.43956
0
LINE
8
BLACK
6
CONTINUOUS
10
5.52445
20
-4.43956
11
5.5207
21
-4.43581
0
LINE
8
BLACK
6
CONTINUOUS
10
5.5207
20
-4.43581
11
5.52445
21
-4.43206
0
LINE
8
BLACK
6
CONTINUOUS
10
5.52445
20
-4.43206
11
5.52445
21
-4.43956
0
LINE
8
BLACK
6
CONTINUOUS
10
5.55444
20
-4.36082
11
5.60319
21
-4.36082
0
LINE
8
BLACK
6
CONTINUOUS
10
5.60319
20
-4.36082
11
5.57694
21
-4.39081
0
LINE
8
BLACK
6
CONTINUOUS
10
5.57694
20
-4.39081
11
5.58819
21
-4.39081
0
LINE
8
BLACK
6
CONTINUOUS
10
5.58819
20
-4.39081
11
5.59569
21
-4.39456
0
LINE
8
BLACK
6
CONTINUOUS
10
5.59569
20
-4.39456
11
5.59944
21
-4.39831
0
LINE
8
BLACK
6
CONTINUOUS
10
5.59944
20
-4.39831
11
5.60319
21
-4.40581
0
LINE
8
BLACK
6
CONTINUOUS
10
5.60319
20
-4.40581
11
5.60319
21
-4.42456
0
LINE
8
BLACK
6
CONTINUOUS
10
5.60319
20
-4.42456
11
5.59944
21
-4.43206
0
LINE
8
BLACK
6
CONTINUOUS
10
5.59944
20
-4.43206
11
5.59569
21
-4.43581
0
LINE
8
BLACK
6
CONTINUOUS
10
5.59569
20
-4.43581
11
5.58819
21
-4.43956
0
LINE
8
BLACK
6
CONTINUOUS
10
5.58819
20
-4.43956
11
5.56569
21
-4.43956
0
LINE
8
BLACK
6
CONTINUOUS
10
5.56569
20
-4.43956
11
5.55819
21
-4.43581
0
LINE
8
BLACK
6
CONTINUOUS
10
5.55819
20
-4.43581
11
5.55444
21
-4.43206
0
LINE
8
BLACK
6
CONTINUOUS
10
5.65193
20
-4.36082
11
5.65943
21
-4.36082
0
LINE
8
BLACK
6
CONTINUOUS
10
5.65943
20
-4.36082
11
5.66693
21
-4.36457
0
LINE
8
BLACK
6
CONTINUOUS
10
5.66693
20
-4.36457
11
5.67068
21
-4.36832
0
LINE
8
BLACK
6
CONTINUOUS
10
5.67068
20
-4.36832
11
5.67443
21
-4.37582
0
LINE
8
BLACK
6
CONTINUOUS
10
5.67443
20
-4.37582
11
5.67818
21
-4.39081
0
LINE
8
BLACK
6
CONTINUOUS
10
5.67818
20
-4.39081
11
5.67818
21
-4.40956
0
LINE
8
BLACK
6
CONTINUOUS
10
5.67818
20
-4.40956
11
5.67443
21
-4.42456
0
LINE
8
BLACK
6
CONTINUOUS
10
5.67443
20
-4.42456
11
5.67068
21
-4.43206
0
LINE
8
BLACK
6
CONTINUOUS
10
5.67068
20
-4.43206
11
5.66693
21
-4.43581
0
LINE
8
BLACK
6
CONTINUOUS
10
5.66693
20
-4.43581
11
5.65943
21
-4.43956
0
LINE
8
BLACK
6
CONTINUOUS
10
5.65943
20
-4.43956
11
5.65193
21
-4.43956
0
LINE
8
BLACK
6
CONTINUOUS
10
5.65193
20
-4.43956
11
5.64443
21
-4.43581
0
LINE
8
BLACK
6
CONTINUOUS
10
5.64443
20
-4.43581
11
5.64068
21
-4.43206
0
LINE
8
BLACK
6
CONTINUOUS
10
5.64068
20
-4.43206
11
5.63693
21
-4.42456
0
LINE
8
BLACK
6
CONTINUOUS
10
5.63693
20
-4.42456
11
5.63318
21
-4.40956
0
LINE
8
BLACK
6
CONTINUOUS
10
5.63318
20
-4.40956
11
5.63318
21
-4.39081
0
LINE
8
BLACK
6
CONTINUOUS
10
5.63318
20
-4.39081
11
5.63693
21
-4.37582
0
LINE
8
BLACK
6
CONTINUOUS
10
5.63693
20
-4.37582
11
5.64068
21
-4.36832
0
LINE
8
BLACK
6
CONTINUOUS
10
5.64068
20
-4.36832
11
5.64443
21
-4.36457
0
LINE
8
BLACK
6
CONTINUOUS
10
5.64443
20
-4.36457
11
5.65193
21
-4.36082
0
LINE
8
BLACK
6
CONTINUOUS
10
5.72692
20
-4.36082
11
5.73442
21
-4.36082
0
LINE
8
BLACK
6
CONTINUOUS
10
5.73442
20
-4.36082
11
5.74192
21
-4.36457
0
LINE
8
BLACK
6
CONTINUOUS
10
5.74192
20
-4.36457
11
5.74567
21
-4.36832
0
LINE
8
BLACK
6
CONTINUOUS
10
5.74567
20
-4.36832
11
5.74942
21
-4.37582
0
LINE
8
BLACK
6
CONTINUOUS
10
5.74942
20
-4.37582
11
5.75317
21
-4.39081
0
LINE
8
BLACK
6
CONTINUOUS
10
5.75317
20
-4.39081
11
5.75317
21
-4.40956
0
LINE
8
BLACK
6
CONTINUOUS
10
5.75317
20
-4.40956
11
5.74942
21
-4.42456
0
LINE
8
BLACK
6
CONTINUOUS
10
5.74942
20
-4.42456
11
5.74567
21
-4.43206
0
LINE
8
BLACK
6
CONTINUOUS
10
5.74567
20
-4.43206
11
5.74192
21
-4.43581
0
LINE
8
BLACK
6
CONTINUOUS
10
5.74192
20
-4.43581
11
5.73442
21
-4.43956
0
LINE
8
BLACK
6
CONTINUOUS
10
5.73442
20
-4.43956
11
5.72692
21
-4.43956
0
LINE
8
BLACK
6
CONTINUOUS
10
5.72692
20
-4.43956
11
5.71942
21
-4.43581
0
LINE
8
BLACK
6
CONTINUOUS
10
5.71942
20
-4.43581
11
5.71567
21
-4.43206
0
LINE
8
BLACK
6
CONTINUOUS
10
5.71567
20
-4.43206
11
5.71192
21
-4.42456
0
LINE
8
BLACK
6
CONTINUOUS
10
5.71192
20
-4.42456
11
5.70817
21
-4.40956
0
LINE
8
BLACK
6
CONTINUOUS
10
5.70817
20
-4.40956
11
5.70817
21
-4.39081
0
LINE
8
BLACK
6
CONTINUOUS
10
5.70817
20
-4.39081
11
5.71192
21
-4.37582
0
LINE
8
BLACK
6
CONTINUOUS
10
5.71192
20
-4.37582
11
5.71567
21
-4.36832
0
LINE
8
BLACK
6
CONTINUOUS
10
5.71567
20
-4.36832
11
5.71942
21
-4.36457
0
LINE
8
BLACK
6
CONTINUOUS
10
5.71942
20
-4.36457
11
5.72692
21
-4.36082
0
LINE
8
BLACK
6
CONTINUOUS
10
5.78691
20
-4.43956
11
5.78691
21
-4.38706
0
LINE
8
BLACK
6
CONTINUOUS
10
5.78691
20
-4.39456
11
5.79066
21
-4.39081
0
LINE
8
BLACK
6
CONTINUOUS
10
5.79066
20
-4.39081
11
5.79816
21
-4.38706
0
LINE
8
BLACK
6
CONTINUOUS
10
5.79816
20
-4.38706
11
5.80941
21
-4.38706
0
LINE
8
BLACK
6
CONTINUOUS
10
5.80941
20
-4.38706
11
5.81691
21
-4.39081
0
LINE
8
BLACK
6
CONTINUOUS
10
5.81691
20
-4.39081
11
5.82066
21
-4.39831
0
LINE
8
BLACK
6
CONTINUOUS
10
5.82066
20
-4.39831
11
5.82066
21
-4.43956
0
LINE
8
BLACK
6
CONTINUOUS
10
5.82066
20
-4.39831
11
5.82441
21
-4.39081
0
LINE
8
BLACK
6
CONTINUOUS
10
5.82441
20
-4.39081
11
5.83191
21
-4.38706
0
LINE
8
BLACK
6
CONTINUOUS
10
5.83191
20
-4.38706
11
5.84316
21
-4.38706
0
LINE
8
BLACK
6
CONTINUOUS
10
5.84316
20
-4.38706
11
5.85066
21
-4.39081
0
LINE
8
BLACK
6
CONTINUOUS
10
5.85066
20
-4.39081
11
5.85441
21
-4.39831
0
LINE
8
BLACK
6
CONTINUOUS
10
5.85441
20
-4.39831
11
5.85441
21
-4.43956
0
LINE
8
BLACK
6
CONTINUOUS
10
5.8919
20
-4.43956
11
5.8919
21
-4.38706
0
LINE
8
BLACK
6
CONTINUOUS
10
5.8919
20
-4.39456
11
5.89565
21
-4.39081
0
LINE
8
BLACK
6
CONTINUOUS
10
5.89565
20
-4.39081
11
5.90315
21
-4.38706
0
LINE
8
BLACK
6
CONTINUOUS
10
5.90315
20
-4.38706
11
5.9144
21
-4.38706
0
LINE
8
BLACK
6
CONTINUOUS
10
5.9144
20
-4.38706
11
5.9219
21
-4.39081
0
LINE
8
BLACK
6
CONTINUOUS
10
5.9219
20
-4.39081
11
5.92565
21
-4.39831
0
LINE
8
BLACK
6
CONTINUOUS
10
5.92565
20
-4.39831
11
5.92565
21
-4.43956
0
LINE
8
BLACK
6
CONTINUOUS
10
5.92565
20
-4.39831
11
5.9294
21
-4.39081
0
LINE
8
BLACK
6
CONTINUOUS
10
5.9294
20
-4.39081
11
5.9369
21
-4.38706
0
LINE
8
BLACK
6
CONTINUOUS
10
5.9369
20
-4.38706
11
5.94814
21
-4.38706
0
LINE
8
BLACK
6
CONTINUOUS
10
5.94814
20
-4.38706
11
5.95564
21
-4.39081
0
LINE
8
BLACK
6
CONTINUOUS
10
5.95564
20
-4.39081
11
5.95939
21
-4.39831
0
LINE
8
BLACK
6
CONTINUOUS
10
5.95939
20
-4.39831
11
5.95939
21
-4.43956
0
LINE
8
BLACK
6
CONTINUOUS
10
6.11312
20
-4.35707
11
6.04563
21
-4.45831
0
LINE
8
BLACK
6
CONTINUOUS
10
6.21436
20
-4.36082
11
6.22186
21
-4.36082
0
LINE
8
BLACK
6
CONTINUOUS
10
6.22186
20
-4.36082
11
6.22936
21
-4.36457
0
LINE
8
BLACK
6
CONTINUOUS
10
6.22936
20
-4.36457
11
6.23311
21
-4.36832
0
LINE
8
BLACK
6
CONTINUOUS
10
6.23311
20
-4.36832
11
6.23686
21
-4.37582
0
LINE
8
BLACK
6
CONTINUOUS
10
6.23686
20
-4.37582
11
6.24061
21
-4.39081
0
LINE
8
BLACK
6
CONTINUOUS
10
6.24061
20
-4.39081
11
6.24061
21
-4.40956
0
LINE
8
BLACK
6
CONTINUOUS
10
6.24061
20
-4.40956
11
6.23686
21
-4.42456
0
LINE
8
BLACK
6
CONTINUOUS
10
6.23686
20
-4.42456
11
6.23311
21
-4.43206
0
LINE
8
BLACK
6
CONTINUOUS
10
6.23311
20
-4.43206
11
6.22936
21
-4.43581
0
LINE
8
BLACK
6
CONTINUOUS
10
6.22936
20
-4.43581
11
6.22186
21
-4.43956
0
LINE
8
BLACK
6
CONTINUOUS
10
6.22186
20
-4.43956
11
6.21436
21
-4.43956
0
LINE
8
BLACK
6
CONTINUOUS
10
6.21436
20
-4.43956
11
6.20686
21
-4.43581
0
LINE
8
BLACK
6
CONTINUOUS
10
6.20686
20
-4.43581
11
6.20311
21
-4.43206
0
LINE
8
BLACK
6
CONTINUOUS
10
6.20311
20
-4.43206
11
6.19936
21
-4.42456
0
LINE
8
BLACK
6
CONTINUOUS
10
6.19936
20
-4.42456
11
6.19561
21
-4.40956
0
LINE
8
BLACK
6
CONTINUOUS
10
6.19561
20
-4.40956
11
6.19561
21
-4.39081
0
LINE
8
BLACK
6
CONTINUOUS
10
6.19561
20
-4.39081
11
6.19936
21
-4.37582
0
LINE
8
BLACK
6
CONTINUOUS
10
6.19936
20
-4.37582
11
6.20311
21
-4.36832
0
LINE
8
BLACK
6
CONTINUOUS
10
6.20311
20
-4.36832
11
6.20686
21
-4.36457
0
LINE
8
BLACK
6
CONTINUOUS
10
6.20686
20
-4.36457
11
6.21436
21
-4.36082
0
LINE
8
BLACK
6
CONTINUOUS
10
6.27435
20
-4.43206
11
6.2781
21
-4.43581
0
LINE
8
BLACK
6
CONTINUOUS
10
6.2781
20
-4.43581
11
6.27435
21
-4.43956
0
LINE
8
BLACK
6
CONTINUOUS
10
6.27435
20
-4.43956
11
6.2706
21
-4.43581
0
LINE
8
BLACK
6
CONTINUOUS
10
6.2706
20
-4.43581
11
6.27435
21
-4.43206
0
LINE
8
BLACK
6
CONTINUOUS
10
6.27435
20
-4.43206
11
6.27435
21
-4.43956
0
LINE
8
BLACK
6
CONTINUOUS
10
6.32685
20
-4.36082
11
6.33435
21
-4.36082
0
LINE
8
BLACK
6
CONTINUOUS
10
6.33435
20
-4.36082
11
6.34184
21
-4.36457
0
LINE
8
BLACK
6
CONTINUOUS
10
6.34184
20
-4.36457
11
6.34559
21
-4.36832
0
LINE
8
BLACK
6
CONTINUOUS
10
6.34559
20
-4.36832
11
6.34934
21
-4.37582
0
LINE
8
BLACK
6
CONTINUOUS
10
6.34934
20
-4.37582
11
6.35309
21
-4.39081
0
LINE
8
BLACK
6
CONTINUOUS
10
6.35309
20
-4.39081
11
6.35309
21
-4.40956
0
LINE
8
BLACK
6
CONTINUOUS
10
6.35309
20
-4.40956
11
6.34934
21
-4.42456
0
LINE
8
BLACK
6
CONTINUOUS
10
6.34934
20
-4.42456
11
6.34559
21
-4.43206
0
LINE
8
BLACK
6
CONTINUOUS
10
6.34559
20
-4.43206
11
6.34184
21
-4.43581
0
LINE
8
BLACK
6
CONTINUOUS
10
6.34184
20
-4.43581
11
6.33435
21
-4.43956
0
LINE
8
BLACK
6
CONTINUOUS
10
6.33435
20
-4.43956
11
6.32685
21
-4.43956
0
LINE
8
BLACK
6
CONTINUOUS
10
6.32685
20
-4.43956
11
6.31935
21
-4.43581
0
LINE
8
BLACK
6
CONTINUOUS
10
6.31935
20
-4.43581
11
6.3156
21
-4.43206
0
LINE
8
BLACK
6
CONTINUOUS
10
6.3156
20
-4.43206
11
6.31185
21
-4.42456
0
LINE
8
BLACK
6
CONTINUOUS
10
6.31185
20
-4.42456
11
6.3081
21
-4.40956
0
LINE
8
BLACK
6
CONTINUOUS
10
6.3081
20
-4.40956
11
6.3081
21
-4.39081
0
LINE
8
BLACK
6
CONTINUOUS
10
6.3081
20
-4.39081
11
6.31185
21
-4.37582
0
LINE
8
BLACK
6
CONTINUOUS
10
6.31185
20
-4.37582
11
6.3156
21
-4.36832
0
LINE
8
BLACK
6
CONTINUOUS
10
6.3156
20
-4.36832
11
6.31935
21
-4.36457
0
LINE
8
BLACK
6
CONTINUOUS
10
6.31935
20
-4.36457
11
6.32685
21
-4.36082
0
LINE
8
BLACK
6
CONTINUOUS
10
6.42808
20
-4.43956
11
6.38309
21
-4.43956
0
LINE
8
BLACK
6
CONTINUOUS
10
6.40559
20
-4.43956
11
6.40559
21
-4.36082
0
LINE
8
BLACK
6
CONTINUOUS
10
6.40559
20
-4.36082
11
6.39809
21
-4.37207
0
LINE
8
BLACK
6
CONTINUOUS
10
6.39809
20
-4.37207
11
6.39059
21
-4.37957
0
LINE
8
BLACK
6
CONTINUOUS
10
6.39059
20
-4.37957
11
6.38309
21
-4.38331
0
LINE
8
BLACK
6
CONTINUOUS
10
6.50307
20
-4.43956
11
6.45808
21
-4.43956
0
LINE
8
BLACK
6
CONTINUOUS
10
6.48058
20
-4.43956
11
6.48058
21
-4.36082
0
LINE
8
BLACK
6
CONTINUOUS
10
6.48058
20
-4.36082
11
6.47308
21
-4.37207
0
LINE
8
BLACK
6
CONTINUOUS
10
6.47308
20
-4.37207
11
6.46558
21
-4.37957
0
LINE
8
BLACK
6
CONTINUOUS
10
6.46558
20
-4.37957
11
6.45808
21
-4.38331
0
LINE
8
BLACK
6
CONTINUOUS
10
6.54807
20
-4.39456
11
6.54057
21
-4.39081
0
LINE
8
BLACK
6
CONTINUOUS
10
6.54057
20
-4.39081
11
6.53682
21
-4.38706
0
LINE
8
BLACK
6
CONTINUOUS
10
6.53682
20
-4.38706
11
6.53307
21
-4.37957
0
LINE
8
BLACK
6
CONTINUOUS
10
6.53307
20
-4.37957
11
6.53307
21
-4.37582
0
LINE
8
BLACK
6
CONTINUOUS
10
6.53307
20
-4.37582
11
6.53682
21
-4.36832
0
LINE
8
BLACK
6
CONTINUOUS
10
6.53682
20
-4.36832
11
6.54057
21
-4.36457
0
LINE
8
BLACK
6
CONTINUOUS
10
6.54057
20
-4.36457
11
6.54807
21
-4.36082
0
LINE
8
BLACK
6
CONTINUOUS
10
6.54807
20
-4.36082
11
6.56307
21
-4.36082
0
LINE
8
BLACK
6
CONTINUOUS
10
6.56307
20
-4.36082
11
6.57057
21
-4.36457
0
LINE
8
BLACK
6
CONTINUOUS
10
6.57057
20
-4.36457
11
6.57432
21
-4.36832
0
LINE
8
BLACK
6
CONTINUOUS
10
6.57432
20
-4.36832
11
6.57807
21
-4.37582
0
LINE
8
BLACK
6
CONTINUOUS
10
6.57807
20
-4.37582
11
6.57807
21
-4.37957
0
LINE
8
BLACK
6
CONTINUOUS
10
6.57807
20
-4.37957
11
6.57432
21
-4.38706
0
LINE
8
BLACK
6
CONTINUOUS
10
6.57432
20
-4.38706
11
6.57057
21
-4.39081
0
LINE
8
BLACK
6
CONTINUOUS
10
6.57057
20
-4.39081
11
6.56307
21
-4.39456
0
LINE
8
BLACK
6
CONTINUOUS
10
6.56307
20
-4.39456
11
6.54807
21
-4.39456
0
LINE
8
BLACK
6
CONTINUOUS
10
6.54807
20
-4.39456
11
6.54057
21
-4.39831
0
LINE
8
BLACK
6
CONTINUOUS
10
6.54057
20
-4.39831
11
6.53682
21
-4.40206
0
LINE
8
BLACK
6
CONTINUOUS
10
6.53682
20
-4.40206
11
6.53307
21
-4.40956
0
LINE
8
BLACK
6
CONTINUOUS
10
6.53307
20
-4.40956
11
6.53307
21
-4.42456
0
LINE
8
BLACK
6
CONTINUOUS
10
6.53307
20
-4.42456
11
6.53682
21
-4.43206
0
LINE
8
BLACK
6
CONTINUOUS
10
6.53682
20
-4.43206
11
6.54057
21
-4.43581
0
LINE
8
BLACK
6
CONTINUOUS
10
6.54057
20
-4.43581
11
6.54807
21
-4.43956
0
LINE
8
BLACK
6
CONTINUOUS
10
6.54807
20
-4.43956
11
6.56307
21
-4.43956
0
LINE
8
BLACK
6
CONTINUOUS
10
6.56307
20
-4.43956
11
6.57057
21
-4.43581
0
LINE
8
BLACK
6
CONTINUOUS
10
6.57057
20
-4.43581
11
6.57432
21
-4.43206
0
LINE
8
BLACK
6
CONTINUOUS
10
6.57432
20
-4.43206
11
6.57807
21
-4.42456
0
LINE
8
BLACK
6
CONTINUOUS
10
6.57807
20
-4.42456
11
6.57807
21
-4.40956
0
LINE
8
BLACK
6
CONTINUOUS
10
6.57807
20
-4.40956
11
6.57432
21
-4.40206
0
LINE
8
BLACK
6
CONTINUOUS
10
6.57432
20
-4.40206
11
6.57057
21
-4.39831
0
LINE
8
BLACK
6
CONTINUOUS
10
6.57057
20
-4.39831
11
6.56307
21
-4.39456
0
LINE
8
BLACK
6
CONTINUOUS
10
6.60806
20
-4.36082
11
6.60806
21
-4.37582
0
LINE
8
BLACK
6
CONTINUOUS
10
6.63806
20
-4.36082
11
6.63806
21
-4.37582
0
LINE
8
BLACK
6
CONTINUOUS
10
6.75429
20
-4.46955
11
6.75054
21
-4.4658
0
LINE
8
BLACK
6
CONTINUOUS
10
6.75054
20
-4.4658
11
6.74304
21
-4.45456
0
LINE
8
BLACK
6
CONTINUOUS
10
6.74304
20
-4.45456
11
6.7393
21
-4.44706
0
LINE
8
BLACK
6
CONTINUOUS
10
6.7393
20
-4.44706
11
6.73555
21
-4.43581
0
LINE
8
BLACK
6
CONTINUOUS
10
6.73555
20
-4.43581
11
6.7318
21
-4.41706
0
LINE
8
BLACK
6
CONTINUOUS
10
6.7318
20
-4.41706
11
6.7318
21
-4.40206
0
LINE
8
BLACK
6
CONTINUOUS
10
6.7318
20
-4.40206
11
6.73555
21
-4.38331
0
LINE
8
BLACK
6
CONTINUOUS
10
6.73555
20
-4.38331
11
6.7393
21
-4.37207
0
LINE
8
BLACK
6
CONTINUOUS
10
6.7393
20
-4.37207
11
6.74304
21
-4.36457
0
LINE
8
BLACK
6
CONTINUOUS
10
6.74304
20
-4.36457
11
6.75054
21
-4.35332
0
LINE
8
BLACK
6
CONTINUOUS
10
6.75054
20
-4.35332
11
6.75429
21
-4.34957
0
LINE
8
BLACK
6
CONTINUOUS
10
6.78054
20
-4.36832
11
6.78429
21
-4.36457
0
LINE
8
BLACK
6
CONTINUOUS
10
6.78429
20
-4.36457
11
6.79179
21
-4.36082
0
LINE
8
BLACK
6
CONTINUOUS
10
6.79179
20
-4.36082
11
6.81054
21
-4.36082
0
LINE
8
BLACK
6
CONTINUOUS
10
6.81054
20
-4.36082
11
6.81804
21
-4.36457
0
LINE
8
BLACK
6
CONTINUOUS
10
6.81804
20
-4.36457
11
6.82178
21
-4.36832
0
LINE
8
BLACK
6
CONTINUOUS
10
6.82178
20
-4.36832
11
6.82553
21
-4.37582
0
LINE
8
BLACK
6
CONTINUOUS
10
6.82553
20
-4.37582
11
6.82553
21
-4.38331
0
LINE
8
BLACK
6
CONTINUOUS
10
6.82553
20
-4.38331
11
6.82178
21
-4.39456
0
LINE
8
BLACK
6
CONTINUOUS
10
6.82178
20
-4.39456
11
6.77679
21
-4.43956
0
LINE
8
BLACK
6
CONTINUOUS
10
6.77679
20
-4.43956
11
6.82553
21
-4.43956
0
LINE
8
BLACK
6
CONTINUOUS
10
6.85178
20
-4.36082
11
6.90427
21
-4.36082
0
LINE
8
BLACK
6
CONTINUOUS
10
6.90427
20
-4.36082
11
6.87053
21
-4.43956
0
LINE
8
BLACK
6
CONTINUOUS
10
6.99426
20
-4.43956
11
6.99426
21
-4.36082
0
LINE
8
BLACK
6
CONTINUOUS
10
7.02801
20
-4.43956
11
7.02801
21
-4.39831
0
LINE
8
BLACK
6
CONTINUOUS
10
7.02801
20
-4.39831
11
7.02426
21
-4.39081
0
LINE
8
BLACK
6
CONTINUOUS
10
7.02426
20
-4.39081
11
7.01676
21
-4.38706
0
LINE
8
BLACK
6
CONTINUOUS
10
7.01676
20
-4.38706
11
7.00551
21
-4.38706
0
LINE
8
BLACK
6
CONTINUOUS
10
7.00551
20
-4.38706
11
6.99801
21
-4.39081
0
LINE
8
BLACK
6
CONTINUOUS
10
6.99801
20
-4.39081
11
6.99426
21
-4.39456
0
LINE
8
BLACK
6
CONTINUOUS
10
7.07675
20
-4.43956
11
7.06925
21
-4.43581
0
LINE
8
BLACK
6
CONTINUOUS
10
7.06925
20
-4.43581
11
7.0655
21
-4.43206
0
LINE
8
BLACK
6
CONTINUOUS
10
7.0655
20
-4.43206
11
7.06175
21
-4.42456
0
LINE
8
BLACK
6
CONTINUOUS
10
7.06175
20
-4.42456
11
7.06175
21
-4.40206
0
LINE
8
BLACK
6
CONTINUOUS
10
7.06175
20
-4.40206
11
7.0655
21
-4.39456
0
LINE
8
BLACK
6
CONTINUOUS
10
7.0655
20
-4.39456
11
7.06925
21
-4.39081
0
LINE
8
BLACK
6
CONTINUOUS
10
7.06925
20
-4.39081
11
7.07675
21
-4.38706
0
LINE
8
BLACK
6
CONTINUOUS
10
7.07675
20
-4.38706
11
7.088
21
-4.38706
0
LINE
8
BLACK
6
CONTINUOUS
10
7.088
20
-4.38706
11
7.0955
21
-4.39081
0
LINE
8
BLACK
6
CONTINUOUS
10
7.0955
20
-4.39081
11
7.09925
21
-4.39456
0
LINE
8
BLACK
6
CONTINUOUS
10
7.09925
20
-4.39456
11
7.103
21
-4.40206
0
LINE
8
BLACK
6
CONTINUOUS
10
7.103
20
-4.40206
11
7.103
21
-4.42456
0
LINE
8
BLACK
6
CONTINUOUS
10
7.103
20
-4.42456
11
7.09925
21
-4.43206
0
LINE
8
BLACK
6
CONTINUOUS
10
7.09925
20
-4.43206
11
7.0955
21
-4.43581
0
LINE
8
BLACK
6
CONTINUOUS
10
7.0955
20
-4.43581
11
7.088
21
-4.43956
0
LINE
8
BLACK
6
CONTINUOUS
10
7.088
20
-4.43956
11
7.07675
21
-4.43956
0
LINE
8
BLACK
6
CONTINUOUS
10
7.14799
20
-4.43956
11
7.14049
21
-4.43581
0
LINE
8
BLACK
6
CONTINUOUS
10
7.14049
20
-4.43581
11
7.13675
21
-4.42831
0
LINE
8
BLACK
6
CONTINUOUS
10
7.13675
20
-4.42831
11
7.13675
21
-4.36082
0
LINE
8
BLACK
6
CONTINUOUS
10
7.20799
20
-4.43581
11
7.20049
21
-4.43956
0
LINE
8
BLACK
6
CONTINUOUS
10
7.20049
20
-4.43956
11
7.18549
21
-4.43956
0
LINE
8
BLACK
6
CONTINUOUS
10
7.18549
20
-4.43956
11
7.17799
21
-4.43581
0
LINE
8
BLACK
6
CONTINUOUS
10
7.17799
20
-4.43581
11
7.17424
21
-4.42831
0
LINE
8
BLACK
6
CONTINUOUS
10
7.17424
20
-4.42831
11
7.17424
21
-4.39831
0
LINE
8
BLACK
6
CONTINUOUS
10
7.17424
20
-4.39831
11
7.17799
21
-4.39081
0
LINE
8
BLACK
6
CONTINUOUS
10
7.17799
20
-4.39081
11
7.18549
21
-4.38706
0
LINE
8
BLACK
6
CONTINUOUS
10
7.18549
20
-4.38706
11
7.20049
21
-4.38706
0
LINE
8
BLACK
6
CONTINUOUS
10
7.20049
20
-4.38706
11
7.20799
21
-4.39081
0
LINE
8
BLACK
6
CONTINUOUS
10
7.20799
20
-4.39081
11
7.21174
21
-4.39831
0
LINE
8
BLACK
6
CONTINUOUS
10
7.21174
20
-4.39831
11
7.21174
21
-4.40581
0
LINE
8
BLACK
6
CONTINUOUS
10
7.21174
20
-4.40581
11
7.17424
21
-4.41331
0
LINE
8
BLACK
6
CONTINUOUS
10
7.24173
20
-4.43581
11
7.24923
21
-4.43956
0
LINE
8
BLACK
6
CONTINUOUS
10
7.24923
20
-4.43956
11
7.26423
21
-4.43956
0
LINE
8
BLACK
6
CONTINUOUS
10
7.26423
20
-4.43956
11
7.27173
21
-4.43581
0
LINE
8
BLACK
6
CONTINUOUS
10
7.27173
20
-4.43581
11
7.27548
21
-4.42831
0
LINE
8
BLACK
6
CONTINUOUS
10
7.27548
20
-4.42831
11
7.27548
21
-4.42456
0
LINE
8
BLACK
6
CONTINUOUS
10
7.27548
20
-4.42456
11
7.27173
21
-4.41706
0
LINE
8
BLACK
6
CONTINUOUS
10
7.27173
20
-4.41706
11
7.26423
21
-4.41331
0
LINE
8
BLACK
6
CONTINUOUS
10
7.26423
20
-4.41331
11
7.25298
21
-4.41331
0
LINE
8
BLACK
6
CONTINUOUS
10
7.25298
20
-4.41331
11
7.24548
21
-4.40956
0
LINE
8
BLACK
6
CONTINUOUS
10
7.24548
20
-4.40956
11
7.24173
21
-4.40206
0
LINE
8
BLACK
6
CONTINUOUS
10
7.24173
20
-4.40206
11
7.24173
21
-4.39831
0
LINE
8
BLACK
6
CONTINUOUS
10
7.24173
20
-4.39831
11
7.24548
21
-4.39081
0
LINE
8
BLACK
6
CONTINUOUS
10
7.24548
20
-4.39081
11
7.25298
21
-4.38706
0
LINE
8
BLACK
6
CONTINUOUS
10
7.25298
20
-4.38706
11
7.26423
21
-4.38706
0
LINE
8
BLACK
6
CONTINUOUS
10
7.26423
20
-4.38706
11
7.27173
21
-4.39081
0
LINE
8
BLACK
6
CONTINUOUS
10
7.30172
20
-4.46955
11
7.30547
21
-4.4658
0
LINE
8
BLACK
6
CONTINUOUS
10
7.30547
20
-4.4658
11
7.31297
21
-4.45456
0
LINE
8
BLACK
6
CONTINUOUS
10
7.31297
20
-4.45456
11
7.31672
21
-4.44706
0
LINE
8
BLACK
6
CONTINUOUS
10
7.31672
20
-4.44706
11
7.32047
21
-4.43581
0
LINE
8
BLACK
6
CONTINUOUS
10
7.32047
20
-4.43581
11
7.32422
21
-4.41706
0
LINE
8
BLACK
6
CONTINUOUS
10
7.32422
20
-4.41706
11
7.32422
21
-4.40206
0
LINE
8
BLACK
6
CONTINUOUS
10
7.32422
20
-4.40206
11
7.32047
21
-4.38331
0
LINE
8
BLACK
6
CONTINUOUS
10
7.32047
20
-4.38331
11
7.31672
21
-4.37207
0
LINE
8
BLACK
6
CONTINUOUS
10
7.31672
20
-4.37207
11
7.31297
21
-4.36457
0
LINE
8
BLACK
6
CONTINUOUS
10
7.31297
20
-4.36457
11
7.30547
21
-4.35332
0
LINE
8
BLACK
6
CONTINUOUS
10
7.30547
20
-4.35332
11
7.30172
21
-4.34957
0
CIRCLE
8
BLACK
10
5.34153
20
-4.50787
40
0.0065
0
LINE
8
BLACK
6
CONTINUOUS
10
5.46445
20
-4.46475
11
5.47195
21
-4.46475
0
LINE
8
BLACK
6
CONTINUOUS
10
5.47195
20
-4.46475
11
5.47945
21
-4.4685
0
LINE
8
BLACK
6
CONTINUOUS
10
5.47945
20
-4.4685
11
5.4832
21
-4.47225
0
LINE
8
BLACK
6
CONTINUOUS
10
5.4832
20
-4.47225
11
5.48695
21
-4.47975
0
LINE
8
BLACK
6
CONTINUOUS
10
5.48695
20
-4.47975
11
5.4907
21
-4.49475
0
LINE
8
BLACK
6
CONTINUOUS
10
5.4907
20
-4.49475
11
5.4907
21
-4.5135
0
LINE
8
BLACK
6
CONTINUOUS
10
5.4907
20
-4.5135
11
5.48695
21
-4.5285
0
LINE
8
BLACK
6
CONTINUOUS
10
5.48695
20
-4.5285
11
5.4832
21
-4.536
0
LINE
8
BLACK
6
CONTINUOUS
10
5.4832
20
-4.536
11
5.47945
21
-4.53974
0
LINE
8
BLACK
6
CONTINUOUS
10
5.47945
20
-4.53974
11
5.47195
21
-4.54349
0
LINE
8
BLACK
6
CONTINUOUS
10
5.47195
20
-4.54349
11
5.46445
21
-4.54349
0
LINE
8
BLACK
6
CONTINUOUS
10
5.46445
20
-4.54349
11
5.45696
21
-4.53974
0
LINE
8
BLACK
6
CONTINUOUS
10
5.45696
20
-4.53974
11
5.45321
21
-4.536
0
LINE
8
BLACK
6
CONTINUOUS
10
5.45321
20
-4.536
11
5.44946
21
-4.5285
0
LINE
8
BLACK
6
CONTINUOUS
10
5.44946
20
-4.5285
11
5.44571
21
-4.5135
0
LINE
8
BLACK
6
CONTINUOUS
10
5.44571
20
-4.5135
11
5.44571
21
-4.49475
0
LINE
8
BLACK
6
CONTINUOUS
10
5.44571
20
-4.49475
11
5.44946
21
-4.47975
0
LINE
8
BLACK
6
CONTINUOUS
10
5.44946
20
-4.47975
11
5.45321
21
-4.47225
0
LINE
8
BLACK
6
CONTINUOUS
10
5.45321
20
-4.47225
11
5.45696
21
-4.4685
0
LINE
8
BLACK
6
CONTINUOUS
10
5.45696
20
-4.4685
11
5.46445
21
-4.46475
0
LINE
8
BLACK
6
CONTINUOUS
10
5.52445
20
-4.536
11
5.5282
21
-4.53974
0
LINE
8
BLACK
6
CONTINUOUS
10
5.5282
20
-4.53974
11
5.52445
21
-4.54349
0
LINE
8
BLACK
6
CONTINUOUS
10
5.52445
20
-4.54349
11
5.5207
21
-4.53974
0
LINE
8
BLACK
6
CONTINUOUS
10
5.5207
20
-4.53974
11
5.52445
21
-4.536
0
LINE
8
BLACK
6
CONTINUOUS
10
5.52445
20
-4.536
11
5.52445
21
-4.54349
0
LINE
8
BLACK
6
CONTINUOUS
10
5.55444
20
-4.46475
11
5.60319
21
-4.46475
0
LINE
8
BLACK
6
CONTINUOUS
10
5.60319
20
-4.46475
11
5.57694
21
-4.49475
0
LINE
8
BLACK
6
CONTINUOUS
10
5.57694
20
-4.49475
11
5.58819
21
-4.49475
0
LINE
8
BLACK
6
CONTINUOUS
10
5.58819
20
-4.49475
11
5.59569
21
-4.4985
0
LINE
8
BLACK
6
CONTINUOUS
10
5.59569
20
-4.4985
11
5.59944
21
-4.50225
0
LINE
8
BLACK
6
CONTINUOUS
10
5.59944
20
-4.50225
11
5.60319
21
-4.50975
0
LINE
8
BLACK
6
CONTINUOUS
10
5.60319
20
-4.50975
11
5.60319
21
-4.5285
0
LINE
8
BLACK
6
CONTINUOUS
10
5.60319
20
-4.5285
11
5.59944
21
-4.536
0
LINE
8
BLACK
6
CONTINUOUS
10
5.59944
20
-4.536
11
5.59569
21
-4.53974
0
LINE
8
BLACK
6
CONTINUOUS
10
5.59569
20
-4.53974
11
5.58819
21
-4.54349
0
LINE
8
BLACK
6
CONTINUOUS
10
5.58819
20
-4.54349
11
5.56569
21
-4.54349
0
LINE
8
BLACK
6
CONTINUOUS
10
5.56569
20
-4.54349
11
5.55819
21
-4.53974
0
LINE
8
BLACK
6
CONTINUOUS
10
5.55819
20
-4.53974
11
5.55444
21
-4.536
0
LINE
8
BLACK
6
CONTINUOUS
10
5.62943
20
-4.46475
11
5.67818
21
-4.46475
0
LINE
8
BLACK
6
CONTINUOUS
10
5.67818
20
-4.46475
11
5.65193
21
-4.49475
0
LINE
8
BLACK
6
CONTINUOUS
10
5.65193
20
-4.49475
11
5.66318
21
-4.49475
0
LINE
8
BLACK
6
CONTINUOUS
10
5.66318
20
-4.49475
11
5.67068
21
-4.4985
0
LINE
8
BLACK
6
CONTINUOUS
10
5.67068
20
-4.4985
11
5.67443
21
-4.50225
0
LINE
8
BLACK
6
CONTINUOUS
10
5.67443
20
-4.50225
11
5.67818
21
-4.50975
0
LINE
8
BLACK
6
CONTINUOUS
10
5.67818
20
-4.50975
11
5.67818
21
-4.5285
0
LINE
8
BLACK
6
CONTINUOUS
10
5.67818
20
-4.5285
11
5.67443
21
-4.536
0
LINE
8
BLACK
6
CONTINUOUS
10
5.67443
20
-4.536
11
5.67068
21
-4.53974
0
LINE
8
BLACK
6
CONTINUOUS
10
5.67068
20
-4.53974
11
5.66318
21
-4.54349
0
LINE
8
BLACK
6
CONTINUOUS
10
5.66318
20
-4.54349
11
5.64068
21
-4.54349
0
LINE
8
BLACK
6
CONTINUOUS
10
5.64068
20
-4.54349
11
5.63318
21
-4.53974
0
LINE
8
BLACK
6
CONTINUOUS
10
5.63318
20
-4.53974
11
5.62943
21
-4.536
0
LINE
8
BLACK
6
CONTINUOUS
10
5.72692
20
-4.46475
11
5.73442
21
-4.46475
0
LINE
8
BLACK
6
CONTINUOUS
10
5.73442
20
-4.46475
11
5.74192
21
-4.4685
0
LINE
8
BLACK
6
CONTINUOUS
10
5.74192
20
-4.4685
11
5.74567
21
-4.47225
0
LINE
8
BLACK
6
CONTINUOUS
10
5.74567
20
-4.47225
11
5.74942
21
-4.47975
0
LINE
8
BLACK
6
CONTINUOUS
10
5.74942
20
-4.47975
11
5.75317
21
-4.49475
0
LINE
8
BLACK
6
CONTINUOUS
10
5.75317
20
-4.49475
11
5.75317
21
-4.5135
0
LINE
8
BLACK
6
CONTINUOUS
10
5.75317
20
-4.5135
11
5.74942
21
-4.5285
0
LINE
8
BLACK
6
CONTINUOUS
10
5.74942
20
-4.5285
11
5.74567
21
-4.536
0
LINE
8
BLACK
6
CONTINUOUS
10
5.74567
20
-4.536
11
5.74192
21
-4.53974
0
LINE
8
BLACK
6
CONTINUOUS
10
5.74192
20
-4.53974
11
5.73442
21
-4.54349
0
LINE
8
BLACK
6
CONTINUOUS
10
5.73442
20
-4.54349
11
5.72692
21
-4.54349
0
LINE
8
BLACK
6
CONTINUOUS
10
5.72692
20
-4.54349
11
5.71942
21
-4.53974
0
LINE
8
BLACK
6
CONTINUOUS
10
5.71942
20
-4.53974
11
5.71567
21
-4.536
0
LINE
8
BLACK
6
CONTINUOUS
10
5.71567
20
-4.536
11
5.71192
21
-4.5285
0
LINE
8
BLACK
6
CONTINUOUS
10
5.71192
20
-4.5285
11
5.70817
21
-4.5135
0
LINE
8
BLACK
6
CONTINUOUS
10
5.70817
20
-4.5135
11
5.70817
21
-4.49475
0
LINE
8
BLACK
6
CONTINUOUS
10
5.70817
20
-4.49475
11
5.71192
21
-4.47975
0
LINE
8
BLACK
6
CONTINUOUS
10
5.71192
20
-4.47975
11
5.71567
21
-4.47225
0
LINE
8
BLACK
6
CONTINUOUS
10
5.71567
20
-4.47225
11
5.71942
21
-4.4685
0
LINE
8
BLACK
6
CONTINUOUS
10
5.71942
20
-4.4685
11
5.72692
21
-4.46475
0
LINE
8
BLACK
6
CONTINUOUS
10
5.78691
20
-4.54349
11
5.78691
21
-4.491
0
LINE
8
BLACK
6
CONTINUOUS
10
5.78691
20
-4.4985
11
5.79066
21
-4.49475
0
LINE
8
BLACK
6
CONTINUOUS
10
5.79066
20
-4.49475
11
5.79816
21
-4.491
0
LINE
8
BLACK
6
CONTINUOUS
10
5.79816
20
-4.491
11
5.80941
21
-4.491
0
LINE
8
BLACK
6
CONTINUOUS
10
5.80941
20
-4.491
11
5.81691
21
-4.49475
0
LINE
8
BLACK
6
CONTINUOUS
10
5.81691
20
-4.49475
11
5.82066
21
-4.50225
0
LINE
8
BLACK
6
CONTINUOUS
10
5.82066
20
-4.50225
11
5.82066
21
-4.54349
0
LINE
8
BLACK
6
CONTINUOUS
10
5.82066
20
-4.50225
11
5.82441
21
-4.49475
0
LINE
8
BLACK
6
CONTINUOUS
10
5.82441
20
-4.49475
11
5.83191
21
-4.491
0
LINE
8
BLACK
6
CONTINUOUS
10
5.83191
20
-4.491
11
5.84316
21
-4.491
0
LINE
8
BLACK
6
CONTINUOUS
10
5.84316
20
-4.491
11
5.85066
21
-4.49475
0
LINE
8
BLACK
6
CONTINUOUS
10
5.85066
20
-4.49475
11
5.85441
21
-4.50225
0
LINE
8
BLACK
6
CONTINUOUS
10
5.85441
20
-4.50225
11
5.85441
21
-4.54349
0
LINE
8
BLACK
6
CONTINUOUS
10
5.8919
20
-4.54349
11
5.8919
21
-4.491
0
LINE
8
BLACK
6
CONTINUOUS
10
5.8919
20
-4.4985
11
5.89565
21
-4.49475
0
LINE
8
BLACK
6
CONTINUOUS
10
5.89565
20
-4.49475
11
5.90315
21
-4.491
0
LINE
8
BLACK
6
CONTINUOUS
10
5.90315
20
-4.491
11
5.9144
21
-4.491
0
LINE
8
BLACK
6
CONTINUOUS
10
5.9144
20
-4.491
11
5.9219
21
-4.49475
0
LINE
8
BLACK
6
CONTINUOUS
10
5.9219
20
-4.49475
11
5.92565
21
-4.50225
0
LINE
8
BLACK
6
CONTINUOUS
10
5.92565
20
-4.50225
11
5.92565
21
-4.54349
0
LINE
8
BLACK
6
CONTINUOUS
10
5.92565
20
-4.50225
11
5.9294
21
-4.49475
0
LINE
8
BLACK
6
CONTINUOUS
10
5.9294
20
-4.49475
11
5.9369
21
-4.491
0
LINE
8
BLACK
6
CONTINUOUS
10
5.9369
20
-4.491
11
5.94814
21
-4.491
0
LINE
8
BLACK
6
CONTINUOUS
10
5.94814
20
-4.491
11
5.95564
21
-4.49475
0
LINE
8
BLACK
6
CONTINUOUS
10
5.95564
20
-4.49475
11
5.95939
21
-4.50225
0
LINE
8
BLACK
6
CONTINUOUS
10
5.95939
20
-4.50225
11
5.95939
21
-4.54349
0
LINE
8
BLACK
6
CONTINUOUS
10
6.11312
20
-4.461
11
6.04563
21
-4.56224
0
LINE
8
BLACK
6
CONTINUOUS
10
6.21436
20
-4.46475
11
6.22186
21
-4.46475
0
LINE
8
BLACK
6
CONTINUOUS
10
6.22186
20
-4.46475
11
6.22936
21
-4.4685
0
LINE
8
BLACK
6
CONTINUOUS
10
6.22936
20
-4.4685
11
6.23311
21
-4.47225
0
LINE
8
BLACK
6
CONTINUOUS
10
6.23311
20
-4.47225
11
6.23686
21
-4.47975
0
LINE
8
BLACK
6
CONTINUOUS
10
6.23686
20
-4.47975
11
6.24061
21
-4.49475
0
LINE
8
BLACK
6
CONTINUOUS
10
6.24061
20
-4.49475
11
6.24061
21
-4.5135
0
LINE
8
BLACK
6
CONTINUOUS
10
6.24061
20
-4.5135
11
6.23686
21
-4.5285
0
LINE
8
BLACK
6
CONTINUOUS
10
6.23686
20
-4.5285
11
6.23311
21
-4.536
0
LINE
8
BLACK
6
CONTINUOUS
10
6.23311
20
-4.536
11
6.22936
21
-4.53974
0
LINE
8
BLACK
6
CONTINUOUS
10
6.22936
20
-4.53974
11
6.22186
21
-4.54349
0
LINE
8
BLACK
6
CONTINUOUS
10
6.22186
20
-4.54349
11
6.21436
21
-4.54349
0
LINE
8
BLACK
6
CONTINUOUS
10
6.21436
20
-4.54349
11
6.20686
21
-4.53974
0
LINE
8
BLACK
6
CONTINUOUS
10
6.20686
20
-4.53974
11
6.20311
21
-4.536
0
LINE
8
BLACK
6
CONTINUOUS
10
6.20311
20
-4.536
11
6.19936
21
-4.5285
0
LINE
8
BLACK
6
CONTINUOUS
10
6.19936
20
-4.5285
11
6.19561
21
-4.5135
0
LINE
8
BLACK
6
CONTINUOUS
10
6.19561
20
-4.5135
11
6.19561
21
-4.49475
0
LINE
8
BLACK
6
CONTINUOUS
10
6.19561
20
-4.49475
11
6.19936
21
-4.47975
0
LINE
8
BLACK
6
CONTINUOUS
10
6.19936
20
-4.47975
11
6.20311
21
-4.47225
0
LINE
8
BLACK
6
CONTINUOUS
10
6.20311
20
-4.47225
11
6.20686
21
-4.4685
0
LINE
8
BLACK
6
CONTINUOUS
10
6.20686
20
-4.4685
11
6.21436
21
-4.46475
0
LINE
8
BLACK
6
CONTINUOUS
10
6.27435
20
-4.536
11
6.2781
21
-4.53974
0
LINE
8
BLACK
6
CONTINUOUS
10
6.2781
20
-4.53974
11
6.27435
21
-4.54349
0
LINE
8
BLACK
6
CONTINUOUS
10
6.27435
20
-4.54349
11
6.2706
21
-4.53974
0
LINE
8
BLACK
6
CONTINUOUS
10
6.2706
20
-4.53974
11
6.27435
21
-4.536
0
LINE
8
BLACK
6
CONTINUOUS
10
6.27435
20
-4.536
11
6.27435
21
-4.54349
0
LINE
8
BLACK
6
CONTINUOUS
10
6.32685
20
-4.46475
11
6.33435
21
-4.46475
0
LINE
8
BLACK
6
CONTINUOUS
10
6.33435
20
-4.46475
11
6.34184
21
-4.4685
0
LINE
8
BLACK
6
CONTINUOUS
10
6.34184
20
-4.4685
11
6.34559
21
-4.47225
0
LINE
8
BLACK
6
CONTINUOUS
10
6.34559
20
-4.47225
11
6.34934
21
-4.47975
0
LINE
8
BLACK
6
CONTINUOUS
10
6.34934
20
-4.47975
11
6.35309
21
-4.49475
0
LINE
8
BLACK
6
CONTINUOUS
10
6.35309
20
-4.49475
11
6.35309
21
-4.5135
0
LINE
8
BLACK
6
CONTINUOUS
10
6.35309
20
-4.5135
11
6.34934
21
-4.5285
0
LINE
8
BLACK
6
CONTINUOUS
10
6.34934
20
-4.5285
11
6.34559
21
-4.536
0
LINE
8
BLACK
6
CONTINUOUS
10
6.34559
20
-4.536
11
6.34184
21
-4.53974
0
LINE
8
BLACK
6
CONTINUOUS
10
6.34184
20
-4.53974
11
6.33435
21
-4.54349
0
LINE
8
BLACK
6
CONTINUOUS
10
6.33435
20
-4.54349
11
6.32685
21
-4.54349
0
LINE
8
BLACK
6
CONTINUOUS
10
6.32685
20
-4.54349
11
6.31935
21
-4.53974
0
LINE
8
BLACK
6
CONTINUOUS
10
6.31935
20
-4.53974
11
6.3156
21
-4.536
0
LINE
8
BLACK
6
CONTINUOUS
10
6.3156
20
-4.536
11
6.31185
21
-4.5285
0
LINE
8
BLACK
6
CONTINUOUS
10
6.31185
20
-4.5285
11
6.3081
21
-4.5135
0
LINE
8
BLACK
6
CONTINUOUS
10
6.3081
20
-4.5135
11
6.3081
21
-4.49475
0
LINE
8
BLACK
6
CONTINUOUS
10
6.3081
20
-4.49475
11
6.31185
21
-4.47975
0
LINE
8
BLACK
6
CONTINUOUS
10
6.31185
20
-4.47975
11
6.3156
21
-4.47225
0
LINE
8
BLACK
6
CONTINUOUS
10
6.3156
20
-4.47225
11
6.31935
21
-4.4685
0
LINE
8
BLACK
6
CONTINUOUS
10
6.31935
20
-4.4685
11
6.32685
21
-4.46475
0
LINE
8
BLACK
6
CONTINUOUS
10
6.42808
20
-4.54349
11
6.38309
21
-4.54349
0
LINE
8
BLACK
6
CONTINUOUS
10
6.40559
20
-4.54349
11
6.40559
21
-4.46475
0
LINE
8
BLACK
6
CONTINUOUS
10
6.40559
20
-4.46475
11
6.39809
21
-4.476
0
LINE
8
BLACK
6
CONTINUOUS
10
6.39809
20
-4.476
11
6.39059
21
-4.4835
0
LINE
8
BLACK
6
CONTINUOUS
10
6.39059
20
-4.4835
11
6.38309
21
-4.48725
0
LINE
8
BLACK
6
CONTINUOUS
10
6.45433
20
-4.46475
11
6.50307
21
-4.46475
0
LINE
8
BLACK
6
CONTINUOUS
10
6.50307
20
-4.46475
11
6.47683
21
-4.49475
0
LINE
8
BLACK
6
CONTINUOUS
10
6.47683
20
-4.49475
11
6.48808
21
-4.49475
0
LINE
8
BLACK
6
CONTINUOUS
10
6.48808
20
-4.49475
11
6.49558
21
-4.4985
0
LINE
8
BLACK
6
CONTINUOUS
10
6.49558
20
-4.4985
11
6.49933
21
-4.50225
0
LINE
8
BLACK
6
CONTINUOUS
10
6.49933
20
-4.50225
11
6.50307
21
-4.50975
0
LINE
8
BLACK
6
CONTINUOUS
10
6.50307
20
-4.50975
11
6.50307
21
-4.5285
0
LINE
8
BLACK
6
CONTINUOUS
10
6.50307
20
-4.5285
11
6.49933
21
-4.536
0
LINE
8
BLACK
6
CONTINUOUS
10
6.49933
20
-4.536
11
6.49558
21
-4.53974
0
LINE
8
BLACK
6
CONTINUOUS
10
6.49558
20
-4.53974
11
6.48808
21
-4.54349
0
LINE
8
BLACK
6
CONTINUOUS
10
6.48808
20
-4.54349
11
6.46558
21
-4.54349
0
LINE
8
BLACK
6
CONTINUOUS
10
6.46558
20
-4.54349
11
6.45808
21
-4.53974
0
LINE
8
BLACK
6
CONTINUOUS
10
6.45808
20
-4.53974
11
6.45433
21
-4.536
0
LINE
8
BLACK
6
CONTINUOUS
10
6.55182
20
-4.46475
11
6.55932
21
-4.46475
0
LINE
8
BLACK
6
CONTINUOUS
10
6.55932
20
-4.46475
11
6.56682
21
-4.4685
0
LINE
8
BLACK
6
CONTINUOUS
10
6.56682
20
-4.4685
11
6.57057
21
-4.47225
0
LINE
8
BLACK
6
CONTINUOUS
10
6.57057
20
-4.47225
11
6.57432
21
-4.47975
0
LINE
8
BLACK
6
CONTINUOUS
10
6.57432
20
-4.47975
11
6.57807
21
-4.49475
0
LINE
8
BLACK
6
CONTINUOUS
10
6.57807
20
-4.49475
11
6.57807
21
-4.5135
0
LINE
8
BLACK
6
CONTINUOUS
10
6.57807
20
-4.5135
11
6.57432
21
-4.5285
0
LINE
8
BLACK
6
CONTINUOUS
10
6.57432
20
-4.5285
11
6.57057
21
-4.536
0
LINE
8
BLACK
6
CONTINUOUS
10
6.57057
20
-4.536
11
6.56682
21
-4.53974
0
LINE
8
BLACK
6
CONTINUOUS
10
6.56682
20
-4.53974
11
6.55932
21
-4.54349
0
LINE
8
BLACK
6
CONTINUOUS
10
6.55932
20
-4.54349
11
6.55182
21
-4.54349
0
LINE
8
BLACK
6
CONTINUOUS
10
6.55182
20
-4.54349
11
6.54432
21
-4.53974
0
LINE
8
BLACK
6
CONTINUOUS
10
6.54432
20
-4.53974
11
6.54057
21
-4.536
0
LINE
8
BLACK
6
CONTINUOUS
10
6.54057
20
-4.536
11
6.53682
21
-4.5285
0
LINE
8
BLACK
6
CONTINUOUS
10
6.53682
20
-4.5285
11
6.53307
21
-4.5135
0
LINE
8
BLACK
6
CONTINUOUS
10
6.53307
20
-4.5135
11
6.53307
21
-4.49475
0
LINE
8
BLACK
6
CONTINUOUS
10
6.53307
20
-4.49475
11
6.53682
21
-4.47975
0
LINE
8
BLACK
6
CONTINUOUS
10
6.53682
20
-4.47975
11
6.54057
21
-4.47225
0
LINE
8
BLACK
6
CONTINUOUS
10
6.54057
20
-4.47225
11
6.54432
21
-4.4685
0
LINE
8
BLACK
6
CONTINUOUS
10
6.54432
20
-4.4685
11
6.55182
21
-4.46475
0
LINE
8
BLACK
6
CONTINUOUS
10
6.60806
20
-4.46475
11
6.60806
21
-4.47975
0
LINE
8
BLACK
6
CONTINUOUS
10
6.63806
20
-4.46475
11
6.63806
21
-4.47975
0
LINE
8
BLACK
6
CONTINUOUS
10
6.75429
20
-4.57349
11
6.75054
21
-4.56974
0
LINE
8
BLACK
6
CONTINUOUS
10
6.75054
20
-4.56974
11
6.74304
21
-4.55849
0
LINE
8
BLACK
6
CONTINUOUS
10
6.74304
20
-4.55849
11
6.7393
21
-4.55099
0
LINE
8
BLACK
6
CONTINUOUS
10
6.7393
20
-4.55099
11
6.73555
21
-4.53974
0
LINE
8
BLACK
6
CONTINUOUS
10
6.73555
20
-4.53974
11
6.7318
21
-4.521
0
LINE
8
BLACK
6
CONTINUOUS
10
6.7318
20
-4.521
11
6.7318
21
-4.506
0
LINE
8
BLACK
6
CONTINUOUS
10
6.7318
20
-4.506
11
6.73555
21
-4.48725
0
LINE
8
BLACK
6
CONTINUOUS
10
6.73555
20
-4.48725
11
6.7393
21
-4.476
0
LINE
8
BLACK
6
CONTINUOUS
10
6.7393
20
-4.476
11
6.74304
21
-4.4685
0
LINE
8
BLACK
6
CONTINUOUS
10
6.74304
20
-4.4685
11
6.75054
21
-4.45726
0
LINE
8
BLACK
6
CONTINUOUS
10
6.75054
20
-4.45726
11
6.75429
21
-4.45351
0
LINE
8
BLACK
6
CONTINUOUS
10
6.77679
20
-4.46475
11
6.82553
21
-4.46475
0
LINE
8
BLACK
6
CONTINUOUS
10
6.82553
20
-4.46475
11
6.79929
21
-4.49475
0
LINE
8
BLACK
6
CONTINUOUS
10
6.79929
20
-4.49475
11
6.81054
21
-4.49475
0
LINE
8
BLACK
6
CONTINUOUS
10
6.81054
20
-4.49475
11
6.81804
21
-4.4985
0
LINE
8
BLACK
6
CONTINUOUS
10
6.81804
20
-4.4985
11
6.82178
21
-4.50225
0
LINE
8
BLACK
6
CONTINUOUS
10
6.82178
20
-4.50225
11
6.82553
21
-4.50975
0
LINE
8
BLACK
6
CONTINUOUS
10
6.82553
20
-4.50975
11
6.82553
21
-4.5285
0
LINE
8
BLACK
6
CONTINUOUS
10
6.82553
20
-4.5285
11
6.82178
21
-4.536
0
LINE
8
BLACK
6
CONTINUOUS
10
6.82178
20
-4.536
11
6.81804
21
-4.53974
0
LINE
8
BLACK
6
CONTINUOUS
10
6.81804
20
-4.53974
11
6.81054
21
-4.54349
0
LINE
8
BLACK
6
CONTINUOUS
10
6.81054
20
-4.54349
11
6.78804
21
-4.54349
0
LINE
8
BLACK
6
CONTINUOUS
10
6.78804
20
-4.54349
11
6.78054
21
-4.53974
0
LINE
8
BLACK
6
CONTINUOUS
10
6.78054
20
-4.53974
11
6.77679
21
-4.536
0
LINE
8
BLACK
6
CONTINUOUS
10
6.91927
20
-4.54349
11
6.91927
21
-4.46475
0
LINE
8
BLACK
6
CONTINUOUS
10
6.95302
20
-4.54349
11
6.95302
21
-4.50225
0
LINE
8
BLACK
6
CONTINUOUS
10
6.95302
20
-4.50225
11
6.94927
21
-4.49475
0
LINE
8
BLACK
6
CONTINUOUS
10
6.94927
20
-4.49475
11
6.94177
21
-4.491
0
LINE
8
BLACK
6
CONTINUOUS
10
6.94177
20
-4.491
11
6.93052
21
-4.491
0
LINE
8
BLACK
6
CONTINUOUS
10
6.93052
20
-4.491
11
6.92302
21
-4.49475
0
LINE
8
BLACK
6
CONTINUOUS
10
6.92302
20
-4.49475
11
6.91927
21
-4.4985
0
LINE
8
BLACK
6
CONTINUOUS
10
7.00176
20
-4.54349
11
6.99426
21
-4.53974
0
LINE
8
BLACK
6
CONTINUOUS
10
6.99426
20
-4.53974
11
6.99051
21
-4.536
0
LINE
8
BLACK
6
CONTINUOUS
10
6.99051
20
-4.536
11
6.98676
21
-4.5285
0
LINE
8
BLACK
6
CONTINUOUS
10
6.98676
20
-4.5285
11
6.98676
21
-4.506
0
LINE
8
BLACK
6
CONTINUOUS
10
6.98676
20
-4.506
11
6.99051
21
-4.4985
0
LINE
8
BLACK
6
CONTINUOUS
10
6.99051
20
-4.4985
11
6.99426
21
-4.49475
0
LINE
8
BLACK
6
CONTINUOUS
10
6.99426
20
-4.49475
11
7.00176
21
-4.491
0
LINE
8
BLACK
6
CONTINUOUS
10
7.00176
20
-4.491
11
7.01301
21
-4.491
0
LINE
8
BLACK
6
CONTINUOUS
10
7.01301
20
-4.491
11
7.02051
21
-4.49475
0
LINE
8
BLACK
6
CONTINUOUS
10
7.02051
20
-4.49475
11
7.02426
21
-4.4985
0
LINE
8
BLACK
6
CONTINUOUS
10
7.02426
20
-4.4985
11
7.02801
21
-4.506
0
LINE
8
BLACK
6
CONTINUOUS
10
7.02801
20
-4.506
11
7.02801
21
-4.5285
0
LINE
8
BLACK
6
CONTINUOUS
10
7.02801
20
-4.5285
11
7.02426
21
-4.536
0
LINE
8
BLACK
6
CONTINUOUS
10
7.02426
20
-4.536
11
7.02051
21
-4.53974
0
LINE
8
BLACK
6
CONTINUOUS
10
7.02051
20
-4.53974
11
7.01301
21
-4.54349
0
LINE
8
BLACK
6
CONTINUOUS
10
7.01301
20
-4.54349
11
7.00176
21
-4.54349
0
LINE
8
BLACK
6
CONTINUOUS
10
7.073
20
-4.54349
11
7.0655
21
-4.53974
0
LINE
8
BLACK
6
CONTINUOUS
10
7.0655
20
-4.53974
11
7.06175
21
-4.53225
0
LINE
8
BLACK
6
CONTINUOUS
10
7.06175
20
-4.53225
11
7.06175
21
-4.46475
0
LINE
8
BLACK
6
CONTINUOUS
10
7.133
20
-4.53974
11
7.1255
21
-4.54349
0
LINE
8
BLACK
6
CONTINUOUS
10
7.1255
20
-4.54349
11
7.1105
21
-4.54349
0
LINE
8
BLACK
6
CONTINUOUS
10
7.1105
20
-4.54349
11
7.103
21
-4.53974
0
LINE
8
BLACK
6
CONTINUOUS
10
7.103
20
-4.53974
11
7.09925
21
-4.53225
0
LINE
8
BLACK
6
CONTINUOUS
10
7.09925
20
-4.53225
11
7.09925
21
-4.50225
0
LINE
8
BLACK
6
CONTINUOUS
10
7.09925
20
-4.50225
11
7.103
21
-4.49475
0
LINE
8
BLACK
6
CONTINUOUS
10
7.103
20
-4.49475
11
7.1105
21
-4.491
0
LINE
8
BLACK
6
CONTINUOUS
10
7.1105
20
-4.491
11
7.1255
21
-4.491
0
LINE
8
BLACK
6
CONTINUOUS
10
7.1255
20
-4.491
11
7.133
21
-4.49475
0
LINE
8
BLACK
6
CONTINUOUS
10
7.133
20
-4.49475
11
7.13675
21
-4.50225
0
LINE
8
BLACK
6
CONTINUOUS
10
7.13675
20
-4.50225
11
7.13675
21
-4.50975
0
LINE
8
BLACK
6
CONTINUOUS
10
7.13675
20
-4.50975
11
7.09925
21
-4.51725
0
LINE
8
BLACK
6
CONTINUOUS
10
7.16674
20
-4.53974
11
7.17424
21
-4.54349
0
LINE
8
BLACK
6
CONTINUOUS
10
7.17424
20
-4.54349
11
7.18924
21
-4.54349
0
LINE
8
BLACK
6
CONTINUOUS
10
7.18924
20
-4.54349
11
7.19674
21
-4.53974
0
LINE
8
BLACK
6
CONTINUOUS
10
7.19674
20
-4.53974
11
7.20049
21
-4.53225
0
LINE
8
BLACK
6
CONTINUOUS
10
7.20049
20
-4.53225
11
7.20049
21
-4.5285
0
LINE
8
BLACK
6
CONTINUOUS
10
7.20049
20
-4.5285
11
7.19674
21
-4.521
0
LINE
8
BLACK
6
CONTINUOUS
10
7.19674
20
-4.521
11
7.18924
21
-4.51725
0
LINE
8
BLACK
6
CONTINUOUS
10
7.18924
20
-4.51725
11
7.17799
21
-4.51725
0
LINE
8
BLACK
6
CONTINUOUS
10
7.17799
20
-4.51725
11
7.17049
21
-4.5135
0
LINE
8
BLACK
6
CONTINUOUS
10
7.17049
20
-4.5135
11
7.16674
21
-4.506
0
LINE
8
BLACK
6
CONTINUOUS
10
7.16674
20
-4.506
11
7.16674
21
-4.50225
0
LINE
8
BLACK
6
CONTINUOUS
10
7.16674
20
-4.50225
11
7.17049
21
-4.49475
0
LINE
8
BLACK
6
CONTINUOUS
10
7.17049
20
-4.49475
11
7.17799
21
-4.491
0
LINE
8
BLACK
6
CONTINUOUS
10
7.17799
20
-4.491
11
7.18924
21
-4.491
0
LINE
8
BLACK
6
CONTINUOUS
10
7.18924
20
-4.491
11
7.19674
21
-4.49475
0
LINE
8
BLACK
6
CONTINUOUS
10
7.22673
20
-4.57349
11
7.23048
21
-4.56974
0
LINE
8
BLACK
6
CONTINUOUS
10
7.23048
20
-4.56974
11
7.23798
21
-4.55849
0
LINE
8
BLACK
6
CONTINUOUS
10
7.23798
20
-4.55849
11
7.24173
21
-4.55099
0
LINE
8
BLACK
6
CONTINUOUS
10
7.24173
20
-4.55099
11
7.24548
21
-4.53974
0
LINE
8
BLACK
6
CONTINUOUS
10
7.24548
20
-4.53974
11
7.24923
21
-4.521
0
LINE
8
BLACK
6
CONTINUOUS
10
7.24923
20
-4.521
11
7.24923
21
-4.506
0
LINE
8
BLACK
6
CONTINUOUS
10
7.24923
20
-4.506
11
7.24548
21
-4.48725
0
LINE
8
BLACK
6
CONTINUOUS
10
7.24548
20
-4.48725
11
7.24173
21
-4.476
0
LINE
8
BLACK
6
CONTINUOUS
10
7.24173
20
-4.476
11
7.23798
21
-4.4685
0
LINE
8
BLACK
6
CONTINUOUS
10
7.23798
20
-4.4685
11
7.23048
21
-4.45726
0
LINE
8
BLACK
6
CONTINUOUS
10
7.23048
20
-4.45726
11
7.22673
21
-4.45351
  0
ENDSEC
  0
EOF
