M48
; DRILL file {KiCad (6.0.1-0)} date Thursday, February 17, 2022 at 11:31:28 PM
; FORMAT={-:-/ absolute / inch / decimal}
; #@! TF.CreationDate,2022-02-17T23:31:28-05:00
; #@! TF.GenerationSoftware,Kicad,Pcbnew,(6.0.1-0)
; #@! TF.FileFunction,Plated,1,2,PTH
FMAT,2
INCH
; #@! TA.AperFunction,Plated,PTH,ViaDrill
T1C0.0118
; #@! TA.AperFunction,Plated,PTH,ViaDrill
T2C0.0130
%
G90
G05
T1
X5.3681Y-4.0413
X5.3957Y-3.3602
X5.425Y-3.63
X5.455Y-3.55
X5.475Y-4.025
X5.48Y-3.89
X5.495Y-4.13
X5.51Y-3.66
X5.535Y-3.76
X5.54Y-3.815
X5.5546Y-3.374
X5.7274Y-4.0724
X5.7323Y-3.8583
X5.765Y-3.885
X5.845Y-3.815
X5.8791Y-3.9909
X5.955Y-3.93
X6.2421Y-3.8898
X6.305Y-4.075
X6.43Y-4.105
X6.4724Y-3.8701
X6.52Y-3.85
X6.5256Y-3.6102
X6.5571Y-3.9469
X6.5827Y-3.5728
X6.5925Y-3.6102
X6.61Y-3.99
T2
X5.485Y-3.505
X5.5118Y-3.5787
X5.5984Y-3.4567
T0
M30
