G04 #@! TF.GenerationSoftware,KiCad,Pcbnew,(6.0.1-0)*
G04 #@! TF.CreationDate,2022-01-30T17:40:57-05:00*
G04 #@! TF.ProjectId,impact_v1.1,696d7061-6374-45f7-9631-2e312e6b6963,rev?*
G04 #@! TF.SameCoordinates,Original*
G04 #@! TF.FileFunction,Legend,Top*
G04 #@! TF.FilePolarity,Positive*
%FSLAX46Y46*%
G04 Gerber Fmt 4.6, Leading zero omitted, Abs format (unit mm)*
G04 Created by KiCad (PCBNEW (6.0.1-0)) date 2022-01-30 17:40:57*
%MOMM*%
%LPD*%
G01*
G04 APERTURE LIST*
G04 Aperture macros list*
%AMRoundRect*
0 Rectangle with rounded corners*
0 $1 Rounding radius*
0 $2 $3 $4 $5 $6 $7 $8 $9 X,Y pos of 4 corners*
0 Add a 4 corners polygon primitive as box body*
4,1,4,$2,$3,$4,$5,$6,$7,$8,$9,$2,$3,0*
0 Add four circle primitives for the rounded corners*
1,1,$1+$1,$2,$3*
1,1,$1+$1,$4,$5*
1,1,$1+$1,$6,$7*
1,1,$1+$1,$8,$9*
0 Add four rect primitives between the rounded corners*
20,1,$1+$1,$2,$3,$4,$5,0*
20,1,$1+$1,$4,$5,$6,$7,0*
20,1,$1+$1,$6,$7,$8,$9,0*
20,1,$1+$1,$8,$9,$2,$3,0*%
G04 Aperture macros list end*
%ADD10C,0.150000*%
%ADD11C,0.170000*%
%ADD12C,0.120000*%
%ADD13C,0.100000*%
%ADD14RoundRect,0.100000X0.217500X0.100000X-0.217500X0.100000X-0.217500X-0.100000X0.217500X-0.100000X0*%
%ADD15R,0.533400X1.460500*%
%ADD16RoundRect,0.100000X-0.100000X0.217500X-0.100000X-0.217500X0.100000X-0.217500X0.100000X0.217500X0*%
%ADD17RoundRect,0.100000X0.100000X-0.217500X0.100000X0.217500X-0.100000X0.217500X-0.100000X-0.217500X0*%
%ADD18RoundRect,0.160000X0.222500X0.160000X-0.222500X0.160000X-0.222500X-0.160000X0.222500X-0.160000X0*%
%ADD19RoundRect,0.100000X-0.217500X-0.100000X0.217500X-0.100000X0.217500X0.100000X-0.217500X0.100000X0*%
%ADD20R,0.449200X1.117800*%
%ADD21R,0.813000X0.500000*%
%ADD22RoundRect,0.160000X-0.160000X0.222500X-0.160000X-0.222500X0.160000X-0.222500X0.160000X0.222500X0*%
%ADD23RoundRect,0.075000X0.075000X-0.350000X0.075000X0.350000X-0.075000X0.350000X-0.075000X-0.350000X0*%
%ADD24RoundRect,0.075000X0.350000X0.075000X-0.350000X0.075000X-0.350000X-0.075000X0.350000X-0.075000X0*%
%ADD25RoundRect,0.155000X0.155000X-0.212500X0.155000X0.212500X-0.155000X0.212500X-0.155000X-0.212500X0*%
%ADD26RoundRect,0.237500X-0.237500X0.300000X-0.237500X-0.300000X0.237500X-0.300000X0.237500X0.300000X0*%
%ADD27R,2.000000X0.900000*%
%ADD28R,0.900000X2.000000*%
%ADD29R,5.000000X5.000000*%
%ADD30RoundRect,0.237500X0.237500X-0.300000X0.237500X0.300000X-0.237500X0.300000X-0.237500X-0.300000X0*%
%ADD31RoundRect,0.155000X0.212500X0.155000X-0.212500X0.155000X-0.212500X-0.155000X0.212500X-0.155000X0*%
G04 APERTURE END LIST*
D10*
X162638095Y-82902380D02*
X162638095Y-81902380D01*
X162876190Y-81902380D01*
X163019047Y-81950000D01*
X163114285Y-82045238D01*
X163161904Y-82140476D01*
X163209523Y-82330952D01*
X163209523Y-82473809D01*
X163161904Y-82664285D01*
X163114285Y-82759523D01*
X163019047Y-82854761D01*
X162876190Y-82902380D01*
X162638095Y-82902380D01*
X163638095Y-82378571D02*
X163971428Y-82378571D01*
X164114285Y-82902380D02*
X163638095Y-82902380D01*
X163638095Y-81902380D01*
X164114285Y-81902380D01*
X164400000Y-81902380D02*
X164733333Y-82902380D01*
X165066666Y-81902380D01*
X165400000Y-82902380D02*
X165400000Y-81902380D01*
X165971428Y-82902380D02*
X165542857Y-82330952D01*
X165971428Y-81902380D02*
X165400000Y-82473809D01*
X166400000Y-82902380D02*
X166400000Y-81902380D01*
X166733333Y-81902380D02*
X167304761Y-81902380D01*
X167019047Y-82902380D02*
X167019047Y-81902380D01*
X163571428Y-78947380D02*
X163571428Y-77947380D01*
X163904761Y-78661666D01*
X164238095Y-77947380D01*
X164238095Y-78947380D01*
X164714285Y-78947380D02*
X164714285Y-77947380D01*
X165047619Y-77947380D02*
X165619047Y-77947380D01*
X165333333Y-78947380D02*
X165333333Y-77947380D01*
X165904761Y-78899761D02*
X166047619Y-78947380D01*
X166285714Y-78947380D01*
X166380952Y-78899761D01*
X166428571Y-78852142D01*
X166476190Y-78756904D01*
X166476190Y-78661666D01*
X166428571Y-78566428D01*
X166380952Y-78518809D01*
X166285714Y-78471190D01*
X166095238Y-78423571D01*
X166000000Y-78375952D01*
X165952380Y-78328333D01*
X165904761Y-78233095D01*
X165904761Y-78137857D01*
X165952380Y-78042619D01*
X166000000Y-77995000D01*
X166095238Y-77947380D01*
X166333333Y-77947380D01*
X166476190Y-77995000D01*
X163476190Y-79557380D02*
X163809523Y-80557380D01*
X164142857Y-79557380D01*
X165000000Y-80557380D02*
X164428571Y-80557380D01*
X164714285Y-80557380D02*
X164714285Y-79557380D01*
X164619047Y-79700238D01*
X164523809Y-79795476D01*
X164428571Y-79843095D01*
X165428571Y-80462142D02*
X165476190Y-80509761D01*
X165428571Y-80557380D01*
X165380952Y-80509761D01*
X165428571Y-80462142D01*
X165428571Y-80557380D01*
X166428571Y-80557380D02*
X165857142Y-80557380D01*
X166142857Y-80557380D02*
X166142857Y-79557380D01*
X166047619Y-79700238D01*
X165952380Y-79795476D01*
X165857142Y-79843095D01*
X164963333Y-90183857D02*
X164924285Y-90219571D01*
X164807142Y-90255285D01*
X164729047Y-90255285D01*
X164611904Y-90219571D01*
X164533809Y-90148142D01*
X164494761Y-90076714D01*
X164455714Y-89933857D01*
X164455714Y-89826714D01*
X164494761Y-89683857D01*
X164533809Y-89612428D01*
X164611904Y-89541000D01*
X164729047Y-89505285D01*
X164807142Y-89505285D01*
X164924285Y-89541000D01*
X164963333Y-89576714D01*
X165353809Y-90255285D02*
X165510000Y-90255285D01*
X165588095Y-90219571D01*
X165627142Y-90183857D01*
X165705238Y-90076714D01*
X165744285Y-89933857D01*
X165744285Y-89648142D01*
X165705238Y-89576714D01*
X165666190Y-89541000D01*
X165588095Y-89505285D01*
X165431904Y-89505285D01*
X165353809Y-89541000D01*
X165314761Y-89576714D01*
X165275714Y-89648142D01*
X165275714Y-89826714D01*
X165314761Y-89898142D01*
X165353809Y-89933857D01*
X165431904Y-89969571D01*
X165588095Y-89969571D01*
X165666190Y-89933857D01*
X165705238Y-89898142D01*
X165744285Y-89826714D01*
X163605833Y-103889285D02*
X163332500Y-103532142D01*
X163137261Y-103889285D02*
X163137261Y-103139285D01*
X163449642Y-103139285D01*
X163527738Y-103175000D01*
X163566785Y-103210714D01*
X163605833Y-103282142D01*
X163605833Y-103389285D01*
X163566785Y-103460714D01*
X163527738Y-103496428D01*
X163449642Y-103532142D01*
X163137261Y-103532142D01*
X164308690Y-103389285D02*
X164308690Y-103889285D01*
X164113452Y-103103571D02*
X163918214Y-103639285D01*
X164425833Y-103639285D01*
X141908380Y-81469900D02*
X142146476Y-81469900D01*
X142051238Y-81707995D02*
X142146476Y-81469900D01*
X142051238Y-81231804D01*
X142336952Y-81612757D02*
X142146476Y-81469900D01*
X142336952Y-81327042D01*
X163312633Y-101604385D02*
X163039300Y-101247242D01*
X162844061Y-101604385D02*
X162844061Y-100854385D01*
X163156442Y-100854385D01*
X163234538Y-100890100D01*
X163273585Y-100925814D01*
X163312633Y-100997242D01*
X163312633Y-101104385D01*
X163273585Y-101175814D01*
X163234538Y-101211528D01*
X163156442Y-101247242D01*
X162844061Y-101247242D01*
X164093585Y-101604385D02*
X163625014Y-101604385D01*
X163859300Y-101604385D02*
X163859300Y-100854385D01*
X163781204Y-100961528D01*
X163703109Y-101032957D01*
X163625014Y-101068671D01*
X139263333Y-96130357D02*
X139224285Y-96166071D01*
X139107142Y-96201785D01*
X139029047Y-96201785D01*
X138911904Y-96166071D01*
X138833809Y-96094642D01*
X138794761Y-96023214D01*
X138755714Y-95880357D01*
X138755714Y-95773214D01*
X138794761Y-95630357D01*
X138833809Y-95558928D01*
X138911904Y-95487500D01*
X139029047Y-95451785D01*
X139107142Y-95451785D01*
X139224285Y-95487500D01*
X139263333Y-95523214D01*
X139966190Y-95451785D02*
X139810000Y-95451785D01*
X139731904Y-95487500D01*
X139692857Y-95523214D01*
X139614761Y-95630357D01*
X139575714Y-95773214D01*
X139575714Y-96058928D01*
X139614761Y-96130357D01*
X139653809Y-96166071D01*
X139731904Y-96201785D01*
X139888095Y-96201785D01*
X139966190Y-96166071D01*
X140005238Y-96130357D01*
X140044285Y-96058928D01*
X140044285Y-95880357D01*
X140005238Y-95808928D01*
X139966190Y-95773214D01*
X139888095Y-95737500D01*
X139731904Y-95737500D01*
X139653809Y-95773214D01*
X139614761Y-95808928D01*
X139575714Y-95880357D01*
X165314761Y-103939285D02*
X165314761Y-103189285D01*
X165510000Y-103189285D01*
X165627142Y-103225000D01*
X165705238Y-103296428D01*
X165744285Y-103367857D01*
X165783333Y-103510714D01*
X165783333Y-103617857D01*
X165744285Y-103760714D01*
X165705238Y-103832142D01*
X165627142Y-103903571D01*
X165510000Y-103939285D01*
X165314761Y-103939285D01*
X166095714Y-103260714D02*
X166134761Y-103225000D01*
X166212857Y-103189285D01*
X166408095Y-103189285D01*
X166486190Y-103225000D01*
X166525238Y-103260714D01*
X166564285Y-103332142D01*
X166564285Y-103403571D01*
X166525238Y-103510714D01*
X166056666Y-103939285D01*
X166564285Y-103939285D01*
X166688333Y-89167857D02*
X166649285Y-89203571D01*
X166532142Y-89239285D01*
X166454047Y-89239285D01*
X166336904Y-89203571D01*
X166258809Y-89132142D01*
X166219761Y-89060714D01*
X166180714Y-88917857D01*
X166180714Y-88810714D01*
X166219761Y-88667857D01*
X166258809Y-88596428D01*
X166336904Y-88525000D01*
X166454047Y-88489285D01*
X166532142Y-88489285D01*
X166649285Y-88525000D01*
X166688333Y-88560714D01*
X167156904Y-88810714D02*
X167078809Y-88775000D01*
X167039761Y-88739285D01*
X167000714Y-88667857D01*
X167000714Y-88632142D01*
X167039761Y-88560714D01*
X167078809Y-88525000D01*
X167156904Y-88489285D01*
X167313095Y-88489285D01*
X167391190Y-88525000D01*
X167430238Y-88560714D01*
X167469285Y-88632142D01*
X167469285Y-88667857D01*
X167430238Y-88739285D01*
X167391190Y-88775000D01*
X167313095Y-88810714D01*
X167156904Y-88810714D01*
X167078809Y-88846428D01*
X167039761Y-88882142D01*
X167000714Y-88953571D01*
X167000714Y-89096428D01*
X167039761Y-89167857D01*
X167078809Y-89203571D01*
X167156904Y-89239285D01*
X167313095Y-89239285D01*
X167391190Y-89203571D01*
X167430238Y-89167857D01*
X167469285Y-89096428D01*
X167469285Y-88953571D01*
X167430238Y-88882142D01*
X167391190Y-88846428D01*
X167313095Y-88810714D01*
X141323333Y-94189285D02*
X141050000Y-93832142D01*
X140854761Y-94189285D02*
X140854761Y-93439285D01*
X141167142Y-93439285D01*
X141245238Y-93475000D01*
X141284285Y-93510714D01*
X141323333Y-93582142D01*
X141323333Y-93689285D01*
X141284285Y-93760714D01*
X141245238Y-93796428D01*
X141167142Y-93832142D01*
X140854761Y-93832142D01*
X141596666Y-93439285D02*
X142104285Y-93439285D01*
X141830952Y-93725000D01*
X141948095Y-93725000D01*
X142026190Y-93760714D01*
X142065238Y-93796428D01*
X142104285Y-93867857D01*
X142104285Y-94046428D01*
X142065238Y-94117857D01*
X142026190Y-94153571D01*
X141948095Y-94189285D01*
X141713809Y-94189285D01*
X141635714Y-94153571D01*
X141596666Y-94117857D01*
X165472857Y-87017857D02*
X165433809Y-87053571D01*
X165316666Y-87089285D01*
X165238571Y-87089285D01*
X165121428Y-87053571D01*
X165043333Y-86982142D01*
X165004285Y-86910714D01*
X164965238Y-86767857D01*
X164965238Y-86660714D01*
X165004285Y-86517857D01*
X165043333Y-86446428D01*
X165121428Y-86375000D01*
X165238571Y-86339285D01*
X165316666Y-86339285D01*
X165433809Y-86375000D01*
X165472857Y-86410714D01*
X166253809Y-87089285D02*
X165785238Y-87089285D01*
X166019523Y-87089285D02*
X166019523Y-86339285D01*
X165941428Y-86446428D01*
X165863333Y-86517857D01*
X165785238Y-86553571D01*
X167034761Y-87089285D02*
X166566190Y-87089285D01*
X166800476Y-87089285D02*
X166800476Y-86339285D01*
X166722380Y-86446428D01*
X166644285Y-86517857D01*
X166566190Y-86553571D01*
X141002381Y-99756101D02*
X141240477Y-99756101D01*
X141145239Y-99994196D02*
X141240477Y-99756101D01*
X141145239Y-99518005D01*
X141430953Y-99898958D02*
X141240477Y-99756101D01*
X141430953Y-99613243D01*
X139494761Y-90016785D02*
X139494761Y-89266785D01*
X139690000Y-89266785D01*
X139807142Y-89302500D01*
X139885238Y-89373928D01*
X139924285Y-89445357D01*
X139963333Y-89588214D01*
X139963333Y-89695357D01*
X139924285Y-89838214D01*
X139885238Y-89909642D01*
X139807142Y-89981071D01*
X139690000Y-90016785D01*
X139494761Y-90016785D01*
X140744285Y-90016785D02*
X140275714Y-90016785D01*
X140510000Y-90016785D02*
X140510000Y-89266785D01*
X140431904Y-89373928D01*
X140353809Y-89445357D01*
X140275714Y-89481071D01*
X166657238Y-97615085D02*
X166657238Y-98222228D01*
X166696285Y-98293657D01*
X166735333Y-98329371D01*
X166813428Y-98365085D01*
X166969619Y-98365085D01*
X167047714Y-98329371D01*
X167086761Y-98293657D01*
X167125809Y-98222228D01*
X167125809Y-97615085D01*
X167867714Y-97865085D02*
X167867714Y-98365085D01*
X167672476Y-97579371D02*
X167477238Y-98115085D01*
X167984857Y-98115085D01*
X138363333Y-98980357D02*
X138324285Y-99016071D01*
X138207142Y-99051785D01*
X138129047Y-99051785D01*
X138011904Y-99016071D01*
X137933809Y-98944642D01*
X137894761Y-98873214D01*
X137855714Y-98730357D01*
X137855714Y-98623214D01*
X137894761Y-98480357D01*
X137933809Y-98408928D01*
X138011904Y-98337500D01*
X138129047Y-98301785D01*
X138207142Y-98301785D01*
X138324285Y-98337500D01*
X138363333Y-98373214D01*
X138636666Y-98301785D02*
X139183333Y-98301785D01*
X138831904Y-99051785D01*
X165113333Y-101629585D02*
X164840000Y-101272442D01*
X164644761Y-101629585D02*
X164644761Y-100879585D01*
X164957142Y-100879585D01*
X165035238Y-100915300D01*
X165074285Y-100951014D01*
X165113333Y-101022442D01*
X165113333Y-101129585D01*
X165074285Y-101201014D01*
X165035238Y-101236728D01*
X164957142Y-101272442D01*
X164644761Y-101272442D01*
X165425714Y-100951014D02*
X165464761Y-100915300D01*
X165542857Y-100879585D01*
X165738095Y-100879585D01*
X165816190Y-100915300D01*
X165855238Y-100951014D01*
X165894285Y-101022442D01*
X165894285Y-101093871D01*
X165855238Y-101201014D01*
X165386666Y-101629585D01*
X165894285Y-101629585D01*
X162896657Y-87967857D02*
X162857609Y-88003571D01*
X162740466Y-88039285D01*
X162662371Y-88039285D01*
X162545228Y-88003571D01*
X162467133Y-87932142D01*
X162428085Y-87860714D01*
X162389038Y-87717857D01*
X162389038Y-87610714D01*
X162428085Y-87467857D01*
X162467133Y-87396428D01*
X162545228Y-87325000D01*
X162662371Y-87289285D01*
X162740466Y-87289285D01*
X162857609Y-87325000D01*
X162896657Y-87360714D01*
X163677609Y-88039285D02*
X163209038Y-88039285D01*
X163443323Y-88039285D02*
X163443323Y-87289285D01*
X163365228Y-87396428D01*
X163287133Y-87467857D01*
X163209038Y-87503571D01*
X164185228Y-87289285D02*
X164263323Y-87289285D01*
X164341419Y-87325000D01*
X164380466Y-87360714D01*
X164419514Y-87432142D01*
X164458561Y-87575000D01*
X164458561Y-87753571D01*
X164419514Y-87896428D01*
X164380466Y-87967857D01*
X164341419Y-88003571D01*
X164263323Y-88039285D01*
X164185228Y-88039285D01*
X164107133Y-88003571D01*
X164068085Y-87967857D01*
X164029038Y-87896428D01*
X163989990Y-87753571D01*
X163989990Y-87575000D01*
X164029038Y-87432142D01*
X164068085Y-87360714D01*
X164107133Y-87325000D01*
X164185228Y-87289285D01*
X138545833Y-94867857D02*
X138506785Y-94903571D01*
X138389642Y-94939285D01*
X138311547Y-94939285D01*
X138194404Y-94903571D01*
X138116309Y-94832142D01*
X138077261Y-94760714D01*
X138038214Y-94617857D01*
X138038214Y-94510714D01*
X138077261Y-94367857D01*
X138116309Y-94296428D01*
X138194404Y-94225000D01*
X138311547Y-94189285D01*
X138389642Y-94189285D01*
X138506785Y-94225000D01*
X138545833Y-94260714D01*
X139326785Y-94939285D02*
X138858214Y-94939285D01*
X139092500Y-94939285D02*
X139092500Y-94189285D01*
X139014404Y-94296428D01*
X138936309Y-94367857D01*
X138858214Y-94403571D01*
X139663333Y-92217857D02*
X139624285Y-92253571D01*
X139507142Y-92289285D01*
X139429047Y-92289285D01*
X139311904Y-92253571D01*
X139233809Y-92182142D01*
X139194761Y-92110714D01*
X139155714Y-91967857D01*
X139155714Y-91860714D01*
X139194761Y-91717857D01*
X139233809Y-91646428D01*
X139311904Y-91575000D01*
X139429047Y-91539285D01*
X139507142Y-91539285D01*
X139624285Y-91575000D01*
X139663333Y-91610714D01*
X139936666Y-91539285D02*
X140444285Y-91539285D01*
X140170952Y-91825000D01*
X140288095Y-91825000D01*
X140366190Y-91860714D01*
X140405238Y-91896428D01*
X140444285Y-91967857D01*
X140444285Y-92146428D01*
X140405238Y-92217857D01*
X140366190Y-92253571D01*
X140288095Y-92289285D01*
X140053809Y-92289285D01*
X139975714Y-92253571D01*
X139936666Y-92217857D01*
X136763333Y-95380357D02*
X136724285Y-95416071D01*
X136607142Y-95451785D01*
X136529047Y-95451785D01*
X136411904Y-95416071D01*
X136333809Y-95344642D01*
X136294761Y-95273214D01*
X136255714Y-95130357D01*
X136255714Y-95023214D01*
X136294761Y-94880357D01*
X136333809Y-94808928D01*
X136411904Y-94737500D01*
X136529047Y-94701785D01*
X136607142Y-94701785D01*
X136724285Y-94737500D01*
X136763333Y-94773214D01*
X137505238Y-94701785D02*
X137114761Y-94701785D01*
X137075714Y-95058928D01*
X137114761Y-95023214D01*
X137192857Y-94987500D01*
X137388095Y-94987500D01*
X137466190Y-95023214D01*
X137505238Y-95058928D01*
X137544285Y-95130357D01*
X137544285Y-95308928D01*
X137505238Y-95380357D01*
X137466190Y-95416071D01*
X137388095Y-95451785D01*
X137192857Y-95451785D01*
X137114761Y-95416071D01*
X137075714Y-95380357D01*
X162375238Y-104189285D02*
X162375238Y-104796428D01*
X162414285Y-104867857D01*
X162453333Y-104903571D01*
X162531428Y-104939285D01*
X162687619Y-104939285D01*
X162765714Y-104903571D01*
X162804761Y-104867857D01*
X162843809Y-104796428D01*
X162843809Y-104189285D01*
X163663809Y-104939285D02*
X163195238Y-104939285D01*
X163429523Y-104939285D02*
X163429523Y-104189285D01*
X163351428Y-104296428D01*
X163273333Y-104367857D01*
X163195238Y-104403571D01*
D11*
X136913333Y-92415857D02*
X136874285Y-92451571D01*
X136757142Y-92487285D01*
X136679047Y-92487285D01*
X136561904Y-92451571D01*
X136483809Y-92380142D01*
X136444761Y-92308714D01*
X136405714Y-92165857D01*
X136405714Y-92058714D01*
X136444761Y-91915857D01*
X136483809Y-91844428D01*
X136561904Y-91773000D01*
X136679047Y-91737285D01*
X136757142Y-91737285D01*
X136874285Y-91773000D01*
X136913333Y-91808714D01*
X137225714Y-91808714D02*
X137264761Y-91773000D01*
X137342857Y-91737285D01*
X137538095Y-91737285D01*
X137616190Y-91773000D01*
X137655238Y-91808714D01*
X137694285Y-91880142D01*
X137694285Y-91951571D01*
X137655238Y-92058714D01*
X137186666Y-92487285D01*
X137694285Y-92487285D01*
D10*
X137178333Y-77967857D02*
X137139285Y-78003571D01*
X137022142Y-78039285D01*
X136944047Y-78039285D01*
X136826904Y-78003571D01*
X136748809Y-77932142D01*
X136709761Y-77860714D01*
X136670714Y-77717857D01*
X136670714Y-77610714D01*
X136709761Y-77467857D01*
X136748809Y-77396428D01*
X136826904Y-77325000D01*
X136944047Y-77289285D01*
X137022142Y-77289285D01*
X137139285Y-77325000D01*
X137178333Y-77360714D01*
X137881190Y-77539285D02*
X137881190Y-78039285D01*
X137685952Y-77253571D02*
X137490714Y-77789285D01*
X137998333Y-77789285D01*
D12*
X141831200Y-86345050D02*
X141831200Y-82103250D01*
X136598800Y-82103250D02*
X136598800Y-86345050D01*
D13*
X167665000Y-102550000D02*
G75*
G03*
X167665000Y-102550000I-50000J0D01*
G01*
D12*
X136523001Y-100693901D02*
X136523001Y-103947901D01*
X141777001Y-103947901D02*
X141777001Y-100693901D01*
D13*
X141450000Y-89235000D02*
G75*
G03*
X141450000Y-89235000I-50000J0D01*
G01*
D10*
X167400000Y-96950000D02*
X167400000Y-96425000D01*
X167400000Y-96950000D02*
X166875000Y-96950000D01*
X167400000Y-92650000D02*
X166875000Y-92650000D01*
X163100000Y-92650000D02*
X163100000Y-93175000D01*
X167400000Y-92650000D02*
X167400000Y-93175000D01*
X163100000Y-96950000D02*
X163100000Y-96425000D01*
X163100000Y-92650000D02*
X163625000Y-92650000D01*
D12*
X163433800Y-89498335D02*
X163433800Y-89266665D01*
X162713800Y-89498335D02*
X162713800Y-89266665D01*
X136440000Y-97103733D02*
X136440000Y-97396267D01*
X137460000Y-97103733D02*
X137460000Y-97396267D01*
X161520000Y-104030000D02*
X160520000Y-104030000D01*
X161520000Y-78285000D02*
X161520000Y-84705000D01*
X143280000Y-78285000D02*
X143280000Y-84705000D01*
X161520000Y-103250000D02*
X161520000Y-104030000D01*
X143280000Y-78285000D02*
X161520000Y-78285000D01*
X143280000Y-103250000D02*
X143280000Y-104030000D01*
X143280000Y-104030000D02*
X144280000Y-104030000D01*
X143280000Y-84705000D02*
X142900000Y-84705000D01*
X136540000Y-90108767D02*
X136540000Y-89816233D01*
X137560000Y-90108767D02*
X137560000Y-89816233D01*
X137498335Y-79160000D02*
X137266665Y-79160000D01*
X137498335Y-78440000D02*
X137266665Y-78440000D01*
%LPC*%
D14*
X165500000Y-90900000D03*
X164685000Y-90900000D03*
X164150000Y-102550000D03*
X163335000Y-102550000D03*
D15*
X141120000Y-81500000D03*
X139850000Y-81500000D03*
X138580000Y-81500000D03*
X137310000Y-81500000D03*
X137310000Y-86948300D03*
X138580000Y-86948300D03*
X139850000Y-86948300D03*
X141120000Y-86948300D03*
D16*
X163450000Y-99435000D03*
X163450000Y-100250000D03*
D17*
X139400000Y-97687500D03*
X139400000Y-96872500D03*
D18*
X166922500Y-102550000D03*
X165777500Y-102550000D03*
D19*
X164785000Y-88950000D03*
X165600000Y-88950000D03*
X141035000Y-92800000D03*
X141850000Y-92800000D03*
D14*
X166457500Y-87700000D03*
X165642500Y-87700000D03*
D20*
X141150002Y-100950000D03*
X140350001Y-100950000D03*
X139550000Y-100950000D03*
X138750002Y-100950000D03*
X137950001Y-100950000D03*
X137150002Y-100950000D03*
D21*
X137431503Y-102320901D03*
D20*
X137150000Y-103691802D03*
X137950001Y-103691802D03*
X138750002Y-103691802D03*
X139550000Y-103691802D03*
X140350001Y-103691802D03*
X141150000Y-103691802D03*
D21*
X140868499Y-102320901D03*
D22*
X141400000Y-89927500D03*
X141400000Y-91072500D03*
D23*
X164000000Y-96750000D03*
X164500000Y-96750000D03*
X165000000Y-96750000D03*
X165500000Y-96750000D03*
X166000000Y-96750000D03*
X166500000Y-96750000D03*
D24*
X167200000Y-96050000D03*
X167200000Y-95550000D03*
X167200000Y-95050000D03*
X167200000Y-94550000D03*
X167200000Y-94050000D03*
X167200000Y-93550000D03*
D23*
X166500000Y-92850000D03*
X166000000Y-92850000D03*
X165500000Y-92850000D03*
X165000000Y-92850000D03*
X164500000Y-92850000D03*
X164000000Y-92850000D03*
D24*
X163300000Y-93550000D03*
X163300000Y-94050000D03*
X163300000Y-94550000D03*
X163300000Y-95050000D03*
X163300000Y-95550000D03*
X163300000Y-96050000D03*
D16*
X138350000Y-96872500D03*
X138350000Y-97687500D03*
X165250000Y-99435000D03*
X165250000Y-100250000D03*
D25*
X163073800Y-89950000D03*
X163073800Y-88815000D03*
D14*
X139007500Y-93700000D03*
X138192500Y-93700000D03*
D16*
X138650000Y-91592500D03*
X138650000Y-92407500D03*
D26*
X136950000Y-96387500D03*
X136950000Y-98112500D03*
D27*
X143900000Y-85895000D03*
X143900000Y-87165000D03*
X143900000Y-88435000D03*
X143900000Y-89705000D03*
X143900000Y-90975000D03*
X143900000Y-92245000D03*
X143900000Y-93515000D03*
X143900000Y-94785000D03*
X143900000Y-96055000D03*
X143900000Y-97325000D03*
X143900000Y-98595000D03*
X143900000Y-99865000D03*
X143900000Y-101135000D03*
X143900000Y-102405000D03*
D28*
X146685000Y-103405000D03*
X147955000Y-103405000D03*
X149225000Y-103405000D03*
X150495000Y-103405000D03*
X151765000Y-103405000D03*
X153035000Y-103405000D03*
X154305000Y-103405000D03*
X155575000Y-103405000D03*
X156845000Y-103405000D03*
X158115000Y-103405000D03*
D27*
X160900000Y-102405000D03*
X160900000Y-101135000D03*
X160900000Y-99865000D03*
X160900000Y-98595000D03*
X160900000Y-97325000D03*
X160900000Y-96055000D03*
X160900000Y-94785000D03*
X160900000Y-93515000D03*
X160900000Y-92245000D03*
X160900000Y-90975000D03*
X160900000Y-89705000D03*
X160900000Y-88435000D03*
X160900000Y-87165000D03*
X160900000Y-85895000D03*
D29*
X151400000Y-93395000D03*
D30*
X137050000Y-90825000D03*
X137050000Y-89100000D03*
D31*
X137950000Y-78800000D03*
X136815000Y-78800000D03*
M02*
