%TF.GenerationSoftware,KiCad,Pcbnew,(6.0.1-0)*%
%TF.CreationDate,2022-02-17T23:39:15-05:00*%
%TF.ProjectId,impact_v1.1,696d7061-6374-45f7-9631-2e312e6b6963,rev?*%
%TF.SameCoordinates,Original*%
%TF.FileFunction,Component,L1,Top*%
%TF.FilePolarity,Positive*%
%FSLAX46Y46*%
G04 Gerber Fmt 4.6, Leading zero omitted, Abs format (unit mm)*
G04 Created by KiCad (PCBNEW (6.0.1-0)) date 2022-02-17 23:39:15*
%MOMM*%
%LPD*%
G01*
G04 APERTURE LIST*
%TA.AperFunction,ComponentMain*%
%ADD10C,0.300000*%
%TD*%
%TA.AperFunction,ComponentOutline,Courtyard*%
%ADD11C,0.100000*%
%TD*%
%TA.AperFunction,ComponentPin*%
%ADD12P,0.360000X4X0.000000*%
%TD*%
%TA.AperFunction,ComponentPin*%
%ADD13C,0.000000*%
%TD*%
G04 APERTURE END LIST*
D10*
%TO.C,"C9"*%
%TO.CFtp,"C_0201_0603Metric_Pad0.64x0.40mm_HandSolder"*%
%TO.CVal,"0.1µF"*%
%TO.CLbN,"Capacitor_SMD"*%
%TO.CMnt,SMD*%
%TO.CRot,180*%
X165092500Y-90900000D03*
D11*
X165972499Y-91249999D02*
X164212501Y-91249999D01*
X164212501Y-90550001D01*
X165972499Y-90550001D01*
X165972499Y-91249999D01*
D12*
%TO.P,"C9","1"*%
X165500000Y-90900000D03*
D13*
%TO.P,"C9","2"*%
X164685000Y-90900000D03*
%TD*%
D10*
%TO.C,"R4"*%
%TO.CFtp,"R_0201_0603Metric_Pad0.64x0.40mm_HandSolder"*%
%TO.CVal,"220"*%
%TO.CLbN,"Resistor_SMD"*%
%TO.CMnt,SMD*%
%TO.CRot,180*%
X163742500Y-102550000D03*
D11*
X164622499Y-102899999D02*
X162862501Y-102899999D01*
X162862501Y-102200001D01*
X164622499Y-102200001D01*
X164622499Y-102899999D01*
D12*
%TO.P,"R4","1"*%
X164150000Y-102550000D03*
D13*
%TO.P,"R4","2"*%
X163335000Y-102550000D03*
%TD*%
D10*
%TO.C,"U2"*%
%TO.CFtp,"MIC5200-3.3YM"*%
%TO.CVal,"MIC5200-3.3BM-TR"*%
%TO.CLbN,"Voltage_Regulator_Linear"*%
%TO.CMnt,TH*%
%TO.CRot,-90*%
X139215000Y-84224150D03*
D11*
X141640699Y-81976250D02*
X141640700Y-81976251D01*
X141958199Y-81976251D01*
X141958199Y-86472049D01*
X141640700Y-86472049D01*
X141640699Y-86472050D01*
X141640699Y-87932549D01*
X136789301Y-87932549D01*
X136789301Y-86472050D01*
X136789300Y-86472049D01*
X136471801Y-86472049D01*
X136471801Y-81976251D01*
X136789300Y-81976251D01*
X136789301Y-81976250D01*
X136789301Y-80515751D01*
X141640699Y-80515751D01*
X141640699Y-81976250D01*
D12*
%TO.P,"U2","1","OUT"*%
X141120000Y-81500000D03*
D13*
%TO.P,"U2","2","OUT"*%
X139850000Y-81500000D03*
%TO.P,"U2","3","NC"*%
X138580000Y-81500000D03*
%TO.P,"U2","4","GND"*%
X137310000Y-81500000D03*
%TO.P,"U2","5","EN"*%
X137310000Y-86948300D03*
%TO.P,"U2","6","NC"*%
X138580000Y-86948300D03*
%TO.P,"U2","7","IN"*%
X139850000Y-86948300D03*
%TO.P,"U2","8","IN"*%
X141120000Y-86948300D03*
%TD*%
D10*
%TO.C,"R1"*%
%TO.CFtp,"R_0201_0603Metric_Pad0.64x0.40mm_HandSolder"*%
%TO.CVal,"2.2K"*%
%TO.CLbN,"Resistor_SMD"*%
%TO.CMnt,SMD*%
%TO.CRot,-90*%
X163450000Y-99842500D03*
D11*
X163799999Y-100722499D02*
X163100001Y-100722499D01*
X163100001Y-98962501D01*
X163799999Y-98962501D01*
X163799999Y-100722499D01*
D12*
%TO.P,"R1","1"*%
X163450000Y-99435000D03*
D13*
%TO.P,"R1","2"*%
X163450000Y-100250000D03*
%TD*%
D10*
%TO.C,"C6"*%
%TO.CFtp,"C_0201_0603Metric_Pad0.64x0.40mm_HandSolder"*%
%TO.CVal,"0.1µF"*%
%TO.CLbN,"Capacitor_SMD"*%
%TO.CMnt,SMD*%
%TO.CRot,90*%
X139400000Y-97280000D03*
D11*
X139749999Y-98159999D02*
X139050001Y-98159999D01*
X139050001Y-96400001D01*
X139749999Y-96400001D01*
X139749999Y-98159999D01*
D12*
%TO.P,"C6","1"*%
X139400000Y-97687500D03*
D13*
%TO.P,"C6","2"*%
X139400000Y-96872500D03*
%TD*%
D10*
%TO.C,"D2"*%
%TO.CFtp,"LED_0402_1005Metric_Pad0.77x0.64mm_HandSolder"*%
%TO.CVal,"LED"*%
%TO.CLbN,"LED_SMD"*%
%TO.CMnt,SMD*%
%TO.CRot,180*%
X166350000Y-102550000D03*
D11*
X167449999Y-103019999D02*
X165250001Y-103019999D01*
X165250001Y-102080001D01*
X167449999Y-102080001D01*
X167449999Y-103019999D01*
D12*
%TO.P,"D2","1","K"*%
X166922500Y-102550000D03*
D13*
%TO.P,"D2","2","A"*%
X165777500Y-102550000D03*
%TD*%
D10*
%TO.C,"C8"*%
%TO.CFtp,"C_0201_0603Metric_Pad0.64x0.40mm_HandSolder"*%
%TO.CVal,"0.01µF"*%
%TO.CLbN,"Capacitor_SMD"*%
%TO.CMnt,SMD*%
%TO.CRot,0*%
X165192500Y-88950000D03*
D11*
X166072499Y-89299999D02*
X164312501Y-89299999D01*
X164312501Y-88600001D01*
X166072499Y-88600001D01*
X166072499Y-89299999D01*
D12*
%TO.P,"C8","1"*%
X164785000Y-88950000D03*
D13*
%TO.P,"C8","2"*%
X165600000Y-88950000D03*
%TD*%
D10*
%TO.C,"R3"*%
%TO.CFtp,"R_0201_0603Metric_Pad0.64x0.40mm_HandSolder"*%
%TO.CVal,"10k"*%
%TO.CLbN,"Resistor_SMD"*%
%TO.CMnt,SMD*%
%TO.CRot,0*%
X141442500Y-92800000D03*
D11*
X142322499Y-93149999D02*
X140562501Y-93149999D01*
X140562501Y-92450001D01*
X142322499Y-92450001D01*
X142322499Y-93149999D01*
D12*
%TO.P,"R3","1"*%
X141035000Y-92800000D03*
D13*
%TO.P,"R3","2"*%
X141850000Y-92800000D03*
%TD*%
D10*
%TO.C,"C11"*%
%TO.CFtp,"C_0201_0603Metric_Pad0.64x0.40mm_HandSolder"*%
%TO.CVal,"0.1µF"*%
%TO.CLbN,"Capacitor_SMD"*%
%TO.CMnt,SMD*%
%TO.CRot,180*%
X166050000Y-87700000D03*
D11*
X166929999Y-88049999D02*
X165170001Y-88049999D01*
X165170001Y-87350001D01*
X166929999Y-87350001D01*
X166929999Y-88049999D01*
D12*
%TO.P,"C11","1"*%
X166457500Y-87700000D03*
D13*
%TO.P,"C11","2"*%
X165642500Y-87700000D03*
%TD*%
D10*
%TO.C,"U3"*%
%TO.CFtp,"ADXL375BCCZ"*%
%TO.CVal,"ADXL375BCCZ"*%
%TO.CLbN,"Sensor_Motion"*%
%TO.CMnt,TH*%
%TO.CRot,-90*%
X139150001Y-102320901D03*
D11*
X141654000Y-100566901D02*
X141654001Y-100566902D01*
X141904000Y-100566902D01*
X141904000Y-104074900D01*
X141654001Y-104074900D01*
X141654000Y-104074901D01*
X141654000Y-104504701D01*
X136646002Y-104504701D01*
X136646002Y-104074901D01*
X136646001Y-104074900D01*
X136396002Y-104074900D01*
X136396002Y-100566902D01*
X136646001Y-100566902D01*
X136646002Y-100566901D01*
X136646002Y-100137101D01*
X141654000Y-100137101D01*
X141654000Y-100566901D01*
D12*
%TO.P,"U3","1","VDD"*%
X141150002Y-100950000D03*
D13*
%TO.P,"U3","2","GND"*%
X140350001Y-100950000D03*
%TO.P,"U3","3","RSRVD"*%
X139550000Y-100950000D03*
%TO.P,"U3","4","GND"*%
X138750002Y-100950000D03*
%TO.P,"U3","5","GND"*%
X137950001Y-100950000D03*
%TO.P,"U3","6","Vs"*%
X137150002Y-100950000D03*
%TO.P,"U3","7","CS"*%
X137431503Y-102320901D03*
%TO.P,"U3","8","INT1"*%
X137150000Y-103691802D03*
%TO.P,"U3","9","INT2"*%
X137950001Y-103691802D03*
%TO.P,"U3","10","NC"*%
X138750002Y-103691802D03*
%TO.P,"U3","11","RSRVD"*%
X139550000Y-103691802D03*
%TO.P,"U3","12","ALT"*%
X140350001Y-103691802D03*
%TO.P,"U3","13","SDA"*%
X141150000Y-103691802D03*
%TO.P,"U3","14","SCL"*%
X140868499Y-102320901D03*
%TD*%
D10*
%TO.C,"D1"*%
%TO.CFtp,"D_0402_1005Metric_Pad0.77x0.64mm_HandSolder"*%
%TO.CVal,"D_Schottky"*%
%TO.CLbN,"Diode_SMD"*%
%TO.CMnt,SMD*%
%TO.CRot,-90*%
X141400000Y-90500000D03*
D11*
X141869999Y-91599999D02*
X140930001Y-91599999D01*
X140930001Y-89400001D01*
X141869999Y-89400001D01*
X141869999Y-91599999D01*
D12*
%TO.P,"D1","1","K"*%
X141400000Y-89927500D03*
D13*
%TO.P,"D1","2","A"*%
X141400000Y-91072500D03*
%TD*%
D10*
%TO.C,"U4"*%
%TO.CFtp,"InvenSense_QFN-24_4x4mm_P0.5mm"*%
%TO.CVal,"MPU-6050"*%
%TO.CLbN,"Sensor_Motion"*%
%TO.CMnt,SMD*%
%TO.CRot,90*%
X165250000Y-94800000D03*
D11*
X167899999Y-97449999D02*
X162600001Y-97449999D01*
X162600001Y-92150001D01*
X167899999Y-92150001D01*
X167899999Y-97449999D01*
D12*
%TO.P,"U4","1","CLKIN"*%
X164000000Y-96750000D03*
D13*
%TO.P,"U4","2"*%
X164500000Y-96750000D03*
%TO.P,"U4","3"*%
X165000000Y-96750000D03*
%TO.P,"U4","4"*%
X165500000Y-96750000D03*
%TO.P,"U4","5"*%
X166000000Y-96750000D03*
%TO.P,"U4","6","AUXDA"*%
X166500000Y-96750000D03*
%TO.P,"U4","7","AUXCL"*%
X167200000Y-96050000D03*
%TO.P,"U4","8","VLOGIC"*%
X167200000Y-95550000D03*
%TO.P,"U4","9","AD0"*%
X167200000Y-95050000D03*
%TO.P,"U4","10","REGOUT"*%
X167200000Y-94550000D03*
%TO.P,"U4","11","FSYNC"*%
X167200000Y-94050000D03*
%TO.P,"U4","12","INT"*%
X167200000Y-93550000D03*
%TO.P,"U4","13","VDD"*%
X166500000Y-92850000D03*
%TO.P,"U4","14"*%
X166000000Y-92850000D03*
%TO.P,"U4","15"*%
X165500000Y-92850000D03*
%TO.P,"U4","16"*%
X165000000Y-92850000D03*
%TO.P,"U4","17"*%
X164500000Y-92850000D03*
%TO.P,"U4","18","GND"*%
X164000000Y-92850000D03*
%TO.P,"U4","19","RESV"*%
X163300000Y-93550000D03*
%TO.P,"U4","20","CPOUT"*%
X163300000Y-94050000D03*
%TO.P,"U4","21","RESV"*%
X163300000Y-94550000D03*
%TO.P,"U4","22","RESV"*%
X163300000Y-95050000D03*
%TO.P,"U4","23","SCL"*%
X163300000Y-95550000D03*
%TO.P,"U4","24","SDA"*%
X163300000Y-96050000D03*
%TD*%
D10*
%TO.C,"C7"*%
%TO.CFtp,"C_0201_0603Metric_Pad0.64x0.40mm_HandSolder"*%
%TO.CVal,"0.1µF"*%
%TO.CLbN,"Capacitor_SMD"*%
%TO.CMnt,SMD*%
%TO.CRot,-90*%
X138350000Y-97280000D03*
D11*
X138699999Y-98159999D02*
X138000001Y-98159999D01*
X138000001Y-96400001D01*
X138699999Y-96400001D01*
X138699999Y-98159999D01*
D12*
%TO.P,"C7","1"*%
X138350000Y-96872500D03*
D13*
%TO.P,"C7","2"*%
X138350000Y-97687500D03*
%TD*%
D10*
%TO.C,"R2"*%
%TO.CFtp,"R_0201_0603Metric_Pad0.64x0.40mm_HandSolder"*%
%TO.CVal,"2.2K"*%
%TO.CLbN,"Resistor_SMD"*%
%TO.CMnt,SMD*%
%TO.CRot,-90*%
X165250000Y-99842500D03*
D11*
X165599999Y-100722499D02*
X164900001Y-100722499D01*
X164900001Y-98962501D01*
X165599999Y-98962501D01*
X165599999Y-100722499D01*
D12*
%TO.P,"R2","1"*%
X165250000Y-99435000D03*
D13*
%TO.P,"R2","2"*%
X165250000Y-100250000D03*
%TD*%
D10*
%TO.C,"C10"*%
%TO.CFtp,"C_0402_1005Metric_Pad0.74x0.62mm_HandSolder"*%
%TO.CVal,"2200pF"*%
%TO.CLbN,"Capacitor_SMD"*%
%TO.CMnt,SMD*%
%TO.CRot,90*%
X163073800Y-89382500D03*
D11*
X163533799Y-90462499D02*
X162613801Y-90462499D01*
X162613801Y-88302501D01*
X163533799Y-88302501D01*
X163533799Y-90462499D01*
D12*
%TO.P,"C10","1"*%
X163073800Y-89950000D03*
D13*
%TO.P,"C10","2"*%
X163073800Y-88815000D03*
%TD*%
D10*
%TO.C,"C1"*%
%TO.CFtp,"C_0201_0603Metric_Pad0.64x0.40mm_HandSolder"*%
%TO.CVal,"0.1µF"*%
%TO.CLbN,"Capacitor_SMD"*%
%TO.CMnt,SMD*%
%TO.CRot,180*%
X138600000Y-93700000D03*
D11*
X139479999Y-94049999D02*
X137720001Y-94049999D01*
X137720001Y-93350001D01*
X139479999Y-93350001D01*
X139479999Y-94049999D01*
D12*
%TO.P,"C1","1"*%
X139007500Y-93700000D03*
D13*
%TO.P,"C1","2"*%
X138192500Y-93700000D03*
%TD*%
D10*
%TO.C,"C3"*%
%TO.CFtp,"C_0201_0603Metric_Pad0.64x0.40mm_HandSolder"*%
%TO.CVal,"0.1µF"*%
%TO.CLbN,"Capacitor_SMD"*%
%TO.CMnt,SMD*%
%TO.CRot,-90*%
X138650000Y-92000000D03*
D11*
X138999999Y-92879999D02*
X138300001Y-92879999D01*
X138300001Y-91120001D01*
X138999999Y-91120001D01*
X138999999Y-92879999D01*
D12*
%TO.P,"C3","1"*%
X138650000Y-91592500D03*
D13*
%TO.P,"C3","2"*%
X138650000Y-92407500D03*
%TD*%
D10*
%TO.C,"C5"*%
%TO.CFtp,"C_0603_1608Metric_Pad1.08x0.95mm_HandSolder"*%
%TO.CVal,"10µF"*%
%TO.CLbN,"Capacitor_SMD"*%
%TO.CMnt,SMD*%
%TO.CRot,-90*%
X136950000Y-97250000D03*
D11*
X137679999Y-98899999D02*
X136220001Y-98899999D01*
X136220001Y-95600001D01*
X137679999Y-95600001D01*
X137679999Y-98899999D01*
D12*
%TO.P,"C5","1"*%
X136950000Y-96387500D03*
D13*
%TO.P,"C5","2"*%
X136950000Y-98112500D03*
%TD*%
D10*
%TO.C,"U1"*%
%TO.CFtp,"ESP32-WROOM-32"*%
%TO.CVal,"ESP32-WROOM-32"*%
%TO.CLbN,"RF_Module"*%
%TO.CMnt,SMD*%
%TO.CRot,0*%
X152400000Y-94150000D03*
D11*
X162149999Y-104649999D02*
X142650001Y-104649999D01*
X142650001Y-77640001D01*
X162149999Y-77640001D01*
X162149999Y-104649999D01*
D12*
%TO.P,"U1","1","GND"*%
X143900000Y-85895000D03*
D13*
%TO.P,"U1","2","VDD"*%
X143900000Y-87165000D03*
%TO.P,"U1","3","EN"*%
X143900000Y-88435000D03*
%TO.P,"U1","4","SENSOR_VP"*%
X143900000Y-89705000D03*
%TO.P,"U1","5","SENSOR_VN"*%
X143900000Y-90975000D03*
%TO.P,"U1","6","IO34"*%
X143900000Y-92245000D03*
%TO.P,"U1","7","IO35"*%
X143900000Y-93515000D03*
%TO.P,"U1","8","IO32"*%
X143900000Y-94785000D03*
%TO.P,"U1","9","IO33"*%
X143900000Y-96055000D03*
%TO.P,"U1","10","IO25"*%
X143900000Y-97325000D03*
%TO.P,"U1","11","IO26"*%
X143900000Y-98595000D03*
%TO.P,"U1","12","IO27"*%
X143900000Y-99865000D03*
%TO.P,"U1","13","IO14"*%
X143900000Y-101135000D03*
%TO.P,"U1","14","IO12"*%
X143900000Y-102405000D03*
%TO.P,"U1","15","GND"*%
X146685000Y-103405000D03*
%TO.P,"U1","16","IO13"*%
X147955000Y-103405000D03*
%TO.P,"U1","17","SHD/SD2"*%
X149225000Y-103405000D03*
%TO.P,"U1","18","SWP/SD3"*%
X150495000Y-103405000D03*
%TO.P,"U1","19","SCS/CMD"*%
X151765000Y-103405000D03*
%TO.P,"U1","20","SCK/CLK"*%
X153035000Y-103405000D03*
%TO.P,"U1","21","SDO/SD0"*%
X154305000Y-103405000D03*
%TO.P,"U1","22","SDI/SD1"*%
X155575000Y-103405000D03*
%TO.P,"U1","23","IO15"*%
X156845000Y-103405000D03*
%TO.P,"U1","24","IO2"*%
X158115000Y-103405000D03*
%TO.P,"U1","25","IO0"*%
X160900000Y-102405000D03*
%TO.P,"U1","26","IO4"*%
X160900000Y-101135000D03*
%TO.P,"U1","27","IO16"*%
X160900000Y-99865000D03*
%TO.P,"U1","28","IO17"*%
X160900000Y-98595000D03*
%TO.P,"U1","29","IO5"*%
X160900000Y-97325000D03*
%TO.P,"U1","30","IO18"*%
X160900000Y-96055000D03*
%TO.P,"U1","31","IO19"*%
X160900000Y-94785000D03*
%TO.P,"U1","32","NC"*%
X160900000Y-93515000D03*
%TO.P,"U1","33","IO21"*%
X160900000Y-92245000D03*
%TO.P,"U1","34","RXD0/IO3"*%
X160900000Y-90975000D03*
%TO.P,"U1","35","TXD0/IO1"*%
X160900000Y-89705000D03*
%TO.P,"U1","36","IO22"*%
X160900000Y-88435000D03*
%TO.P,"U1","37","IO23"*%
X160900000Y-87165000D03*
%TO.P,"U1","38","GND"*%
X160900000Y-85895000D03*
%TO.P,"U1","39","GND"*%
X151400000Y-93395000D03*
%TD*%
D10*
%TO.C,"C2"*%
%TO.CFtp,"C_0603_1608Metric_Pad1.08x0.95mm_HandSolder"*%
%TO.CVal,"10µF"*%
%TO.CLbN,"Capacitor_SMD"*%
%TO.CMnt,SMD*%
%TO.CRot,90*%
X137050000Y-89962500D03*
D11*
X137779999Y-91612499D02*
X136320001Y-91612499D01*
X136320001Y-88312501D01*
X137779999Y-88312501D01*
X137779999Y-91612499D01*
D12*
%TO.P,"C2","1"*%
X137050000Y-90825000D03*
D13*
%TO.P,"C2","2"*%
X137050000Y-89100000D03*
%TD*%
D10*
%TO.C,"C4"*%
%TO.CFtp,"C_0402_1005Metric_Pad0.74x0.62mm_HandSolder"*%
%TO.CVal,"1µF"*%
%TO.CLbN,"Capacitor_SMD"*%
%TO.CMnt,SMD*%
%TO.CRot,180*%
X137382500Y-78800000D03*
D11*
X138462499Y-79259999D02*
X136302501Y-79259999D01*
X136302501Y-78340001D01*
X138462499Y-78340001D01*
X138462499Y-79259999D01*
D12*
%TO.P,"C4","1"*%
X137950000Y-78800000D03*
D13*
%TO.P,"C4","2"*%
X136815000Y-78800000D03*
%TD*%
M02*
