  0
SECTION
  2
HEADER
  9
$ANGBASE
  50
0.0
  9
$ANGDIR
  70
1
  9
$MEASUREMENT
  70
0
  0
ENDSEC
  0
SECTION
  2
TABLES
  0
TABLE
  2
LTYPE
  70
4
  0
LTYPE
  5
40F
  2
CONTINUOUS
  70
0
  3
Solid line
  72
65
  73
0
  40
0.0
  0
LTYPE
  5
410
  2
DASHDOT
 70
0
  3
Dash Dot ____ _ ____ _
 72
65
 73
4
 40
2.0
 49
1.25
 49
-0.25
 49
0.25
 49
-0.25
  0
LTYPE
  5
411
  2
DASHED
 70
0
  3
Dashed __ __ __ __ __
 72
65
 73
2
 40
0.75
 49
0.5
 49
-0.25
  0
LTYPE
  5
43B
  2
DOTTED
 70
0
  3
Dotted .  .  .  .
 72
65
 73
2
 40
0.2
 49
0.0
 49
-0.2
  0
ENDTAB
  0
TABLE
  2
STYLE
  70
4
  0
STYLE
  2
KICAD
  70
0
  40
0
  41
1
  42
1
  50
0
  71
0
  3
isocp.shx
  0
STYLE
  2
KICADB
  70
0
  40
0
  41
1
  42
1
  50
0
  71
0
  3
isocp.shx
  0
STYLE
  2
KICADI
  70
0
  40
0
  41
1
  42
1
  50
15
  71
0
  3
isocp.shx
  0
STYLE
  2
KICADBI
  70
0
  40
0
  41
1
  42
1
  50
15
  71
0
  3
isocp.shx
  0
ENDTAB
  0
TABLE
  2
LAYER
  70
1
  0
LAYER
  2
BLACK
  70
0
  62
7
  6
CONTINUOUS
  0
ENDTAB
  0
ENDSEC
  0
SECTION
  2
ENTITIES
0
LINE
8
BLACK
6
CONTINUOUS
10
5.35
20
-3
11
6.64791
21
-3
0
LINE
8
BLACK
6
CONTINUOUS
10
6.64791
20
-3
11
6.64791
21
-4.15
0
LINE
8
BLACK
6
CONTINUOUS
10
6.64791
20
-4.15
11
5.35
21
-4.15
0
LINE
8
BLACK
6
CONTINUOUS
10
5.35
20
-4.15
11
5.35
21
-3
0
LINE
8
BLACK
6
CONTINUOUS
10
5.44946
20
-4.2742
11
5.44946
21
-4.19546
0
LINE
8
BLACK
6
CONTINUOUS
10
5.44946
20
-4.19546
11
5.4682
21
-4.19546
0
LINE
8
BLACK
6
CONTINUOUS
10
5.4682
20
-4.19546
11
5.47945
21
-4.19921
0
LINE
8
BLACK
6
CONTINUOUS
10
5.47945
20
-4.19921
11
5.48695
21
-4.20671
0
LINE
8
BLACK
6
CONTINUOUS
10
5.48695
20
-4.20671
11
5.4907
21
-4.21421
0
LINE
8
BLACK
6
CONTINUOUS
10
5.4907
20
-4.21421
11
5.49445
21
-4.22921
0
LINE
8
BLACK
6
CONTINUOUS
10
5.49445
20
-4.22921
11
5.49445
21
-4.24046
0
LINE
8
BLACK
6
CONTINUOUS
10
5.49445
20
-4.24046
11
5.4907
21
-4.25546
0
LINE
8
BLACK
6
CONTINUOUS
10
5.4907
20
-4.25546
11
5.48695
21
-4.26295
0
LINE
8
BLACK
6
CONTINUOUS
10
5.48695
20
-4.26295
11
5.47945
21
-4.27045
0
LINE
8
BLACK
6
CONTINUOUS
10
5.47945
20
-4.27045
11
5.4682
21
-4.2742
0
LINE
8
BLACK
6
CONTINUOUS
10
5.4682
20
-4.2742
11
5.44946
21
-4.2742
0
LINE
8
BLACK
6
CONTINUOUS
10
5.5282
20
-4.2742
11
5.5282
21
-4.22171
0
LINE
8
BLACK
6
CONTINUOUS
10
5.5282
20
-4.23671
11
5.53195
21
-4.22921
0
LINE
8
BLACK
6
CONTINUOUS
10
5.53195
20
-4.22921
11
5.5357
21
-4.22546
0
LINE
8
BLACK
6
CONTINUOUS
10
5.5357
20
-4.22546
11
5.54319
21
-4.22171
0
LINE
8
BLACK
6
CONTINUOUS
10
5.54319
20
-4.22171
11
5.55069
21
-4.22171
0
LINE
8
BLACK
6
CONTINUOUS
10
5.57694
20
-4.2742
11
5.57694
21
-4.22171
0
LINE
8
BLACK
6
CONTINUOUS
10
5.57694
20
-4.19546
11
5.57319
21
-4.19921
0
LINE
8
BLACK
6
CONTINUOUS
10
5.57319
20
-4.19921
11
5.57694
21
-4.20296
0
LINE
8
BLACK
6
CONTINUOUS
10
5.57694
20
-4.20296
11
5.58069
21
-4.19921
0
LINE
8
BLACK
6
CONTINUOUS
10
5.58069
20
-4.19921
11
5.57694
21
-4.19546
0
LINE
8
BLACK
6
CONTINUOUS
10
5.57694
20
-4.19546
11
5.57694
21
-4.20296
0
LINE
8
BLACK
6
CONTINUOUS
10
5.62568
20
-4.2742
11
5.61819
21
-4.27045
0
LINE
8
BLACK
6
CONTINUOUS
10
5.61819
20
-4.27045
11
5.61444
21
-4.26295
0
LINE
8
BLACK
6
CONTINUOUS
10
5.61444
20
-4.26295
11
5.61444
21
-4.19546
0
LINE
8
BLACK
6
CONTINUOUS
10
5.66693
20
-4.2742
11
5.65943
21
-4.27045
0
LINE
8
BLACK
6
CONTINUOUS
10
5.65943
20
-4.27045
11
5.65568
21
-4.26295
0
LINE
8
BLACK
6
CONTINUOUS
10
5.65568
20
-4.26295
11
5.65568
21
-4.19546
0
LINE
8
BLACK
6
CONTINUOUS
10
5.75692
20
-4.2742
11
5.75692
21
-4.19546
0
LINE
8
BLACK
6
CONTINUOUS
10
5.75692
20
-4.19546
11
5.78316
21
-4.25171
0
LINE
8
BLACK
6
CONTINUOUS
10
5.78316
20
-4.25171
11
5.80941
21
-4.19546
0
LINE
8
BLACK
6
CONTINUOUS
10
5.80941
20
-4.19546
11
5.80941
21
-4.2742
0
LINE
8
BLACK
6
CONTINUOUS
10
5.88065
20
-4.2742
11
5.88065
21
-4.23296
0
LINE
8
BLACK
6
CONTINUOUS
10
5.88065
20
-4.23296
11
5.8769
21
-4.22546
0
LINE
8
BLACK
6
CONTINUOUS
10
5.8769
20
-4.22546
11
5.8694
21
-4.22171
0
LINE
8
BLACK
6
CONTINUOUS
10
5.8694
20
-4.22171
11
5.85441
21
-4.22171
0
LINE
8
BLACK
6
CONTINUOUS
10
5.85441
20
-4.22171
11
5.84691
21
-4.22546
0
LINE
8
BLACK
6
CONTINUOUS
10
5.88065
20
-4.27045
11
5.87315
21
-4.2742
0
LINE
8
BLACK
6
CONTINUOUS
10
5.87315
20
-4.2742
11
5.85441
21
-4.2742
0
LINE
8
BLACK
6
CONTINUOUS
10
5.85441
20
-4.2742
11
5.84691
21
-4.27045
0
LINE
8
BLACK
6
CONTINUOUS
10
5.84691
20
-4.27045
11
5.84316
21
-4.26295
0
LINE
8
BLACK
6
CONTINUOUS
10
5.84316
20
-4.26295
11
5.84316
21
-4.25546
0
LINE
8
BLACK
6
CONTINUOUS
10
5.84316
20
-4.25546
11
5.84691
21
-4.24796
0
LINE
8
BLACK
6
CONTINUOUS
10
5.84691
20
-4.24796
11
5.85441
21
-4.24421
0
LINE
8
BLACK
6
CONTINUOUS
10
5.85441
20
-4.24421
11
5.87315
21
-4.24421
0
LINE
8
BLACK
6
CONTINUOUS
10
5.87315
20
-4.24421
11
5.88065
21
-4.24046
0
LINE
8
BLACK
6
CONTINUOUS
10
5.91815
20
-4.22171
11
5.91815
21
-4.30045
0
LINE
8
BLACK
6
CONTINUOUS
10
5.91815
20
-4.22546
11
5.92565
21
-4.22171
0
LINE
8
BLACK
6
CONTINUOUS
10
5.92565
20
-4.22171
11
5.94064
21
-4.22171
0
LINE
8
BLACK
6
CONTINUOUS
10
5.94064
20
-4.22171
11
5.94814
21
-4.22546
0
LINE
8
BLACK
6
CONTINUOUS
10
5.94814
20
-4.22546
11
5.95189
21
-4.22921
0
LINE
8
BLACK
6
CONTINUOUS
10
5.95189
20
-4.22921
11
5.95564
21
-4.23671
0
LINE
8
BLACK
6
CONTINUOUS
10
5.95564
20
-4.23671
11
5.95564
21
-4.25921
0
LINE
8
BLACK
6
CONTINUOUS
10
5.95564
20
-4.25921
11
5.95189
21
-4.2667
0
LINE
8
BLACK
6
CONTINUOUS
10
5.95189
20
-4.2667
11
5.94814
21
-4.27045
0
LINE
8
BLACK
6
CONTINUOUS
10
5.94814
20
-4.27045
11
5.94064
21
-4.2742
0
LINE
8
BLACK
6
CONTINUOUS
10
5.94064
20
-4.2742
11
5.92565
21
-4.2742
0
LINE
8
BLACK
6
CONTINUOUS
10
5.92565
20
-4.2742
11
5.91815
21
-4.27045
0
LINE
8
BLACK
6
CONTINUOUS
10
5.98939
20
-4.2667
11
5.99314
21
-4.27045
0
LINE
8
BLACK
6
CONTINUOUS
10
5.99314
20
-4.27045
11
5.98939
21
-4.2742
0
LINE
8
BLACK
6
CONTINUOUS
10
5.98939
20
-4.2742
11
5.98564
21
-4.27045
0
LINE
8
BLACK
6
CONTINUOUS
10
5.98564
20
-4.27045
11
5.98939
21
-4.2667
0
LINE
8
BLACK
6
CONTINUOUS
10
5.98939
20
-4.2667
11
5.98939
21
-4.2742
0
LINE
8
BLACK
6
CONTINUOUS
10
5.98939
20
-4.22546
11
5.99314
21
-4.22921
0
LINE
8
BLACK
6
CONTINUOUS
10
5.99314
20
-4.22921
11
5.98939
21
-4.23296
0
LINE
8
BLACK
6
CONTINUOUS
10
5.98939
20
-4.23296
11
5.98564
21
-4.22921
0
LINE
8
BLACK
6
CONTINUOUS
10
5.98564
20
-4.22921
11
5.98939
21
-4.22546
0
LINE
8
BLACK
6
CONTINUOUS
10
5.98939
20
-4.22546
11
5.98939
21
-4.23296
  0
ENDSEC
  0
EOF
