M48
; DRILL file {KiCad (6.0.1-0)} date Sunday, January 30, 2022 at 05:41:00 PM
; FORMAT={-:-/ absolute / metric / decimal}
; #@! TF.CreationDate,2022-01-30T17:41:00-05:00
; #@! TF.GenerationSoftware,Kicad,Pcbnew,(6.0.1-0)
; #@! TF.FileFunction,Plated,1,2,PTH
FMAT,2
METRIC
; #@! TA.AperFunction,Plated,PTH,ViaDrill
T1C0.300
; #@! TA.AperFunction,Plated,PTH,ViaDrill
T2C0.330
%
G90
G05
T1
X136.35Y-102.65
X137.05Y-85.35
X137.795Y-92.202
X138.557Y-90.17
X139.065Y-102.235
X139.192Y-98.806
X139.573Y-104.902
X139.954Y-92.964
X140.589Y-95.504
X140.716Y-96.901
X141.087Y-85.7
X145.476Y-103.439
X145.6Y-98.0
X146.431Y-98.679
X148.463Y-96.901
X149.328Y-101.37
X151.257Y-99.822
X158.55Y-98.8
X160.147Y-103.505
X163.322Y-104.267
X164.4Y-98.3
X165.608Y-97.79
X165.75Y-91.7
X166.55Y-100.25
X167.2Y-90.75
X167.45Y-91.7
X167.894Y-101.346
T2
X139.319Y-89.027
X140.0Y-90.9
X142.2Y-87.8
T0
M30
