G04 #@! TF.GenerationSoftware,KiCad,Pcbnew,(6.0.1-0)*
G04 #@! TF.CreationDate,2022-01-30T17:20:39-05:00*
G04 #@! TF.ProjectId,impact_v1.1,696d7061-6374-45f7-9631-2e312e6b6963,rev?*
G04 #@! TF.SameCoordinates,Original*
G04 #@! TF.FileFunction,Paste,Top*
G04 #@! TF.FilePolarity,Positive*
%FSLAX46Y46*%
G04 Gerber Fmt 4.6, Leading zero omitted, Abs format (unit mm)*
G04 Created by KiCad (PCBNEW (6.0.1-0)) date 2022-01-30 17:20:39*
%MOMM*%
%LPD*%
G01*
G04 APERTURE LIST*
G04 Aperture macros list*
%AMRoundRect*
0 Rectangle with rounded corners*
0 $1 Rounding radius*
0 $2 $3 $4 $5 $6 $7 $8 $9 X,Y pos of 4 corners*
0 Add a 4 corners polygon primitive as box body*
4,1,4,$2,$3,$4,$5,$6,$7,$8,$9,$2,$3,0*
0 Add four circle primitives for the rounded corners*
1,1,$1+$1,$2,$3*
1,1,$1+$1,$4,$5*
1,1,$1+$1,$6,$7*
1,1,$1+$1,$8,$9*
0 Add four rect primitives between the rounded corners*
20,1,$1+$1,$2,$3,$4,$5,0*
20,1,$1+$1,$4,$5,$6,$7,0*
20,1,$1+$1,$6,$7,$8,$9,0*
20,1,$1+$1,$8,$9,$2,$3,0*%
G04 Aperture macros list end*
%ADD10R,0.533400X1.460500*%
%ADD11R,0.813000X0.500000*%
%ADD12R,0.449200X1.117800*%
%ADD13R,5.000000X5.000000*%
%ADD14R,2.000000X0.900000*%
%ADD15R,0.900000X2.000000*%
%ADD16RoundRect,0.090000X0.139000X0.090000X-0.139000X0.090000X-0.139000X-0.090000X0.139000X-0.090000X0*%
%ADD17RoundRect,0.090000X-0.090000X0.139000X-0.090000X-0.139000X0.090000X-0.139000X0.090000X0.139000X0*%
%ADD18RoundRect,0.090000X0.090000X-0.139000X0.090000X0.139000X-0.090000X0.139000X-0.090000X-0.139000X0*%
%ADD19RoundRect,0.160000X0.222500X0.160000X-0.222500X0.160000X-0.222500X-0.160000X0.222500X-0.160000X0*%
%ADD20RoundRect,0.090000X-0.139000X-0.090000X0.139000X-0.090000X0.139000X0.090000X-0.139000X0.090000X0*%
%ADD21RoundRect,0.160000X-0.160000X0.222500X-0.160000X-0.222500X0.160000X-0.222500X0.160000X0.222500X0*%
%ADD22RoundRect,0.075000X0.350000X0.075000X-0.350000X0.075000X-0.350000X-0.075000X0.350000X-0.075000X0*%
%ADD23RoundRect,0.075000X0.075000X-0.350000X0.075000X0.350000X-0.075000X0.350000X-0.075000X-0.350000X0*%
%ADD24RoundRect,0.155000X0.155000X-0.212500X0.155000X0.212500X-0.155000X0.212500X-0.155000X-0.212500X0*%
%ADD25RoundRect,0.237500X-0.237500X0.300000X-0.237500X-0.300000X0.237500X-0.300000X0.237500X0.300000X0*%
%ADD26RoundRect,0.237500X0.237500X-0.300000X0.237500X0.300000X-0.237500X0.300000X-0.237500X-0.300000X0*%
%ADD27RoundRect,0.155000X0.212500X0.155000X-0.212500X0.155000X-0.212500X-0.155000X0.212500X-0.155000X0*%
G04 APERTURE END LIST*
D10*
X141120000Y-86948300D03*
X139850000Y-86948300D03*
X138580000Y-86948300D03*
X137310000Y-86948300D03*
X137310000Y-81500000D03*
X138580000Y-81500000D03*
X139850000Y-81500000D03*
X141120000Y-81500000D03*
D11*
X140868499Y-102320901D03*
D12*
X141150000Y-103691802D03*
X140350001Y-103691802D03*
X139550000Y-103691802D03*
X138750002Y-103691802D03*
X137950001Y-103691802D03*
X137150000Y-103691802D03*
D11*
X137431503Y-102320901D03*
D12*
X137150002Y-100950000D03*
X137950001Y-100950000D03*
X138750002Y-100950000D03*
X139550000Y-100950000D03*
X140350001Y-100950000D03*
X141150002Y-100950000D03*
D13*
X151400000Y-93395000D03*
D14*
X160900000Y-85895000D03*
X160900000Y-87165000D03*
X160900000Y-88435000D03*
X160900000Y-89705000D03*
X160900000Y-90975000D03*
X160900000Y-92245000D03*
X160900000Y-93515000D03*
X160900000Y-94785000D03*
X160900000Y-96055000D03*
X160900000Y-97325000D03*
X160900000Y-98595000D03*
X160900000Y-99865000D03*
X160900000Y-101135000D03*
X160900000Y-102405000D03*
D15*
X158115000Y-103405000D03*
X156845000Y-103405000D03*
X155575000Y-103405000D03*
X154305000Y-103405000D03*
X153035000Y-103405000D03*
X151765000Y-103405000D03*
X150495000Y-103405000D03*
X149225000Y-103405000D03*
X147955000Y-103405000D03*
X146685000Y-103405000D03*
D14*
X143900000Y-102405000D03*
X143900000Y-101135000D03*
X143900000Y-99865000D03*
X143900000Y-98595000D03*
X143900000Y-97325000D03*
X143900000Y-96055000D03*
X143900000Y-94785000D03*
X143900000Y-93515000D03*
X143900000Y-92245000D03*
X143900000Y-90975000D03*
X143900000Y-89705000D03*
X143900000Y-88435000D03*
X143900000Y-87165000D03*
X143900000Y-85895000D03*
D16*
X164660000Y-90900000D03*
X165525000Y-90900000D03*
X164175000Y-102550000D03*
X163310000Y-102550000D03*
D17*
X163450000Y-100275000D03*
X163450000Y-99410000D03*
D18*
X139400000Y-97712500D03*
X139400000Y-96847500D03*
D19*
X166922500Y-102550000D03*
X165777500Y-102550000D03*
D20*
X164760000Y-88950000D03*
X165625000Y-88950000D03*
X141875000Y-92800000D03*
X141010000Y-92800000D03*
D16*
X166482500Y-87700000D03*
X165617500Y-87700000D03*
D21*
X141400000Y-91072500D03*
X141400000Y-89927500D03*
D22*
X163300000Y-96050000D03*
X163300000Y-95550000D03*
X163300000Y-95050000D03*
X163300000Y-94550000D03*
X163300000Y-94050000D03*
X163300000Y-93550000D03*
D23*
X164000000Y-92850000D03*
X164500000Y-92850000D03*
X165000000Y-92850000D03*
X165500000Y-92850000D03*
X166000000Y-92850000D03*
X166500000Y-92850000D03*
D22*
X167200000Y-93550000D03*
X167200000Y-94050000D03*
X167200000Y-94550000D03*
X167200000Y-95050000D03*
X167200000Y-95550000D03*
X167200000Y-96050000D03*
D23*
X166500000Y-96750000D03*
X166000000Y-96750000D03*
X165500000Y-96750000D03*
X165000000Y-96750000D03*
X164500000Y-96750000D03*
X164000000Y-96750000D03*
D17*
X138350000Y-96847500D03*
X138350000Y-97712500D03*
X165250000Y-99410000D03*
X165250000Y-100275000D03*
D24*
X163073800Y-88815000D03*
X163073800Y-89950000D03*
D16*
X138167500Y-93700000D03*
X139032500Y-93700000D03*
D17*
X138650000Y-92432500D03*
X138650000Y-91567500D03*
D25*
X136950000Y-96387500D03*
X136950000Y-98112500D03*
D26*
X137050000Y-90825000D03*
X137050000Y-89100000D03*
D27*
X136815000Y-78800000D03*
X137950000Y-78800000D03*
M02*
