G04 #@! TF.GenerationSoftware,KiCad,Pcbnew,(6.0.1-0)*
G04 #@! TF.CreationDate,2022-01-30T17:20:39-05:00*
G04 #@! TF.ProjectId,impact_v1.1,696d7061-6374-45f7-9631-2e312e6b6963,rev?*
G04 #@! TF.SameCoordinates,Original*
G04 #@! TF.FileFunction,Legend,Bot*
G04 #@! TF.FilePolarity,Positive*
%FSLAX46Y46*%
G04 Gerber Fmt 4.6, Leading zero omitted, Abs format (unit mm)*
G04 Created by KiCad (PCBNEW (6.0.1-0)) date 2022-01-30 17:20:39*
%MOMM*%
%LPD*%
G01*
G04 APERTURE LIST*
%ADD10C,0.150000*%
%ADD11C,0.120000*%
%ADD12C,3.000000*%
%ADD13R,3.000000X3.000000*%
%ADD14R,1.000000X1.500000*%
G04 APERTURE END LIST*
D10*
X162109523Y-104552380D02*
X162109523Y-103552380D01*
X161728571Y-103552380D01*
X161633333Y-103600000D01*
X161585714Y-103647619D01*
X161538095Y-103742857D01*
X161538095Y-103885714D01*
X161585714Y-103980952D01*
X161633333Y-104028571D01*
X161728571Y-104076190D01*
X162109523Y-104076190D01*
X161109523Y-104552380D02*
X161109523Y-103885714D01*
X161109523Y-104076190D02*
X161061904Y-103980952D01*
X161014285Y-103933333D01*
X160919047Y-103885714D01*
X160823809Y-103885714D01*
X160347619Y-104552380D02*
X160442857Y-104504761D01*
X160490476Y-104457142D01*
X160538095Y-104361904D01*
X160538095Y-104076190D01*
X160490476Y-103980952D01*
X160442857Y-103933333D01*
X160347619Y-103885714D01*
X160204761Y-103885714D01*
X160109523Y-103933333D01*
X160061904Y-103980952D01*
X160014285Y-104076190D01*
X160014285Y-104361904D01*
X160061904Y-104457142D01*
X160109523Y-104504761D01*
X160204761Y-104552380D01*
X160347619Y-104552380D01*
X159585714Y-103885714D02*
X159585714Y-104885714D01*
X159585714Y-103933333D02*
X159490476Y-103885714D01*
X159300000Y-103885714D01*
X159204761Y-103933333D01*
X159157142Y-103980952D01*
X159109523Y-104076190D01*
X159109523Y-104361904D01*
X159157142Y-104457142D01*
X159204761Y-104504761D01*
X159300000Y-104552380D01*
X159490476Y-104552380D01*
X159585714Y-104504761D01*
X158300000Y-104504761D02*
X158395238Y-104552380D01*
X158585714Y-104552380D01*
X158680952Y-104504761D01*
X158728571Y-104409523D01*
X158728571Y-104028571D01*
X158680952Y-103933333D01*
X158585714Y-103885714D01*
X158395238Y-103885714D01*
X158300000Y-103933333D01*
X158252380Y-104028571D01*
X158252380Y-104123809D01*
X158728571Y-104219047D01*
X157823809Y-104552380D02*
X157823809Y-103885714D01*
X157823809Y-104076190D02*
X157776190Y-103980952D01*
X157728571Y-103933333D01*
X157633333Y-103885714D01*
X157538095Y-103885714D01*
X157347619Y-103885714D02*
X156966666Y-103885714D01*
X157204761Y-103552380D02*
X157204761Y-104409523D01*
X157157142Y-104504761D01*
X157061904Y-104552380D01*
X156966666Y-104552380D01*
X156728571Y-103885714D02*
X156490476Y-104552380D01*
X156252380Y-103885714D02*
X156490476Y-104552380D01*
X156585714Y-104790476D01*
X156633333Y-104838095D01*
X156728571Y-104885714D01*
X154966666Y-104552380D02*
X155061904Y-104504761D01*
X155109523Y-104457142D01*
X155157142Y-104361904D01*
X155157142Y-104076190D01*
X155109523Y-103980952D01*
X155061904Y-103933333D01*
X154966666Y-103885714D01*
X154823809Y-103885714D01*
X154728571Y-103933333D01*
X154680952Y-103980952D01*
X154633333Y-104076190D01*
X154633333Y-104361904D01*
X154680952Y-104457142D01*
X154728571Y-104504761D01*
X154823809Y-104552380D01*
X154966666Y-104552380D01*
X154347619Y-103885714D02*
X153966666Y-103885714D01*
X154204761Y-104552380D02*
X154204761Y-103695238D01*
X154157142Y-103600000D01*
X154061904Y-103552380D01*
X153966666Y-103552380D01*
X152919047Y-104266666D02*
X152442857Y-104266666D01*
X153014285Y-104552380D02*
X152680952Y-103552380D01*
X152347619Y-104552380D01*
X152014285Y-104552380D02*
X152014285Y-103885714D01*
X152014285Y-103980952D02*
X151966666Y-103933333D01*
X151871428Y-103885714D01*
X151728571Y-103885714D01*
X151633333Y-103933333D01*
X151585714Y-104028571D01*
X151585714Y-104552380D01*
X151585714Y-104028571D02*
X151538095Y-103933333D01*
X151442857Y-103885714D01*
X151300000Y-103885714D01*
X151204761Y-103933333D01*
X151157142Y-104028571D01*
X151157142Y-104552380D01*
X150538095Y-104552380D02*
X150633333Y-104504761D01*
X150680952Y-104457142D01*
X150728571Y-104361904D01*
X150728571Y-104076190D01*
X150680952Y-103980952D01*
X150633333Y-103933333D01*
X150538095Y-103885714D01*
X150395238Y-103885714D01*
X150300000Y-103933333D01*
X150252380Y-103980952D01*
X150204761Y-104076190D01*
X150204761Y-104361904D01*
X150252380Y-104457142D01*
X150300000Y-104504761D01*
X150395238Y-104552380D01*
X150538095Y-104552380D01*
X149347619Y-103885714D02*
X149347619Y-104695238D01*
X149395238Y-104790476D01*
X149442857Y-104838095D01*
X149538095Y-104885714D01*
X149680952Y-104885714D01*
X149776190Y-104838095D01*
X149347619Y-104504761D02*
X149442857Y-104552380D01*
X149633333Y-104552380D01*
X149728571Y-104504761D01*
X149776190Y-104457142D01*
X149823809Y-104361904D01*
X149823809Y-104076190D01*
X149776190Y-103980952D01*
X149728571Y-103933333D01*
X149633333Y-103885714D01*
X149442857Y-103885714D01*
X149347619Y-103933333D01*
X148871428Y-104552380D02*
X148871428Y-103552380D01*
X148442857Y-104552380D02*
X148442857Y-104028571D01*
X148490476Y-103933333D01*
X148585714Y-103885714D01*
X148728571Y-103885714D01*
X148823809Y-103933333D01*
X148871428Y-103980952D01*
X147204761Y-104552380D02*
X147204761Y-103552380D01*
X146633333Y-104552380D02*
X147061904Y-103980952D01*
X146633333Y-103552380D02*
X147204761Y-104123809D01*
X145776190Y-104552380D02*
X145776190Y-104028571D01*
X145823809Y-103933333D01*
X145919047Y-103885714D01*
X146109523Y-103885714D01*
X146204761Y-103933333D01*
X145776190Y-104504761D02*
X145871428Y-104552380D01*
X146109523Y-104552380D01*
X146204761Y-104504761D01*
X146252380Y-104409523D01*
X146252380Y-104314285D01*
X146204761Y-104219047D01*
X146109523Y-104171428D01*
X145871428Y-104171428D01*
X145776190Y-104123809D01*
X145347619Y-104504761D02*
X145252380Y-104552380D01*
X145061904Y-104552380D01*
X144966666Y-104504761D01*
X144919047Y-104409523D01*
X144919047Y-104361904D01*
X144966666Y-104266666D01*
X145061904Y-104219047D01*
X145204761Y-104219047D01*
X145300000Y-104171428D01*
X145347619Y-104076190D01*
X145347619Y-104028571D01*
X145300000Y-103933333D01*
X145204761Y-103885714D01*
X145061904Y-103885714D01*
X144966666Y-103933333D01*
X144490476Y-104552380D02*
X144490476Y-103552380D01*
X144061904Y-104552380D02*
X144061904Y-104028571D01*
X144109523Y-103933333D01*
X144204761Y-103885714D01*
X144347619Y-103885714D01*
X144442857Y-103933333D01*
X144490476Y-103980952D01*
X143680952Y-103885714D02*
X143442857Y-104552380D01*
X143204761Y-103885714D02*
X143442857Y-104552380D01*
X143538095Y-104790476D01*
X143585714Y-104838095D01*
X143680952Y-104885714D01*
X142395238Y-104552380D02*
X142395238Y-104028571D01*
X142442857Y-103933333D01*
X142538095Y-103885714D01*
X142728571Y-103885714D01*
X142823809Y-103933333D01*
X142395238Y-104504761D02*
X142490476Y-104552380D01*
X142728571Y-104552380D01*
X142823809Y-104504761D01*
X142871428Y-104409523D01*
X142871428Y-104314285D01*
X142823809Y-104219047D01*
X142728571Y-104171428D01*
X142490476Y-104171428D01*
X142395238Y-104123809D01*
X141919047Y-103885714D02*
X141919047Y-104885714D01*
X141919047Y-103933333D02*
X141823809Y-103885714D01*
X141633333Y-103885714D01*
X141538095Y-103933333D01*
X141490476Y-103980952D01*
X141442857Y-104076190D01*
X141442857Y-104361904D01*
X141490476Y-104457142D01*
X141538095Y-104504761D01*
X141633333Y-104552380D01*
X141823809Y-104552380D01*
X141919047Y-104504761D01*
X147276780Y-98859571D02*
X146652019Y-98859571D01*
X156547780Y-98554771D02*
X155923019Y-98554771D01*
X156235400Y-98840485D02*
X156235400Y-98269057D01*
X139783333Y-82239285D02*
X139783333Y-82775000D01*
X139822380Y-82882142D01*
X139900476Y-82953571D01*
X140017619Y-82989285D01*
X140095714Y-82989285D01*
X139392857Y-82989285D02*
X139392857Y-82239285D01*
X139080476Y-82239285D01*
X139002380Y-82275000D01*
X138963333Y-82310714D01*
X138924285Y-82382142D01*
X138924285Y-82489285D01*
X138963333Y-82560714D01*
X139002380Y-82596428D01*
X139080476Y-82632142D01*
X139392857Y-82632142D01*
X138143333Y-82989285D02*
X138611904Y-82989285D01*
X138377619Y-82989285D02*
X138377619Y-82239285D01*
X138455714Y-82346428D01*
X138533809Y-82417857D01*
X138611904Y-82453571D01*
D11*
X148765200Y-101396800D02*
G75*
G03*
X148765200Y-101396800I-1750000J0D01*
G01*
X154560800Y-99773000D02*
X154560800Y-103173000D01*
X157960800Y-99773000D02*
X154560800Y-99773000D01*
X154560800Y-103173000D02*
X157960800Y-103173000D01*
X157960800Y-103173000D02*
X157960800Y-99773000D01*
X140500000Y-83450000D02*
X137700000Y-83450000D01*
X140500000Y-85450000D02*
X140500000Y-83450000D01*
X137700000Y-83450000D02*
X137700000Y-85450000D01*
X137700000Y-85450000D02*
X140500000Y-85450000D01*
%LPC*%
D12*
X147015200Y-101396800D03*
D13*
X156260800Y-101473000D03*
D14*
X139750000Y-84450000D03*
X138450000Y-84450000D03*
M02*
